<svg xmlns="http://www.w3.org/2000/svg" xmlns:xlink="http://www.w3.org/1999/xlink" width="48" height="48"><defs><radialGradient gradientUnits="userSpaceOnUse" gradientTransform="matrix(1.009 0 0 1.31883 -111.52 -18.767)" r="16.322" fy="40.545" fx="93.78" cy="40.545" cx="93.78" id="prefix__ae" xlink:href="#prefix__a"/><radialGradient gradientUnits="userSpaceOnUse" gradientTransform="matrix(-1.25862 0 0 .66655 57.401 8.045)" r="9.723" fy="7.14" fx="27.884" cy="7.14" cx="27.884" id="prefix__ah" xlink:href="#prefix__d"/><radialGradient xlink:href="#prefix__g" id="prefix__m" gradientTransform="scale(.99999 1.00001)" cx="18.248" cy="15.716" fx="18.248" fy="15.716" r="29.993" gradientUnits="userSpaceOnUse"/><radialGradient xlink:href="#prefix__h" id="prefix__l" gradientTransform="scale(1.64399 .60828)" cx="15.116" cy="63.965" fx="15.116" fy="63.965" r="12.289" gradientUnits="userSpaceOnUse"/><radialGradient xlink:href="#prefix__i" id="prefix__ad" gradientTransform="scale(.99999 1.00001)" cx="15.601" cy="12.142" fx="15.601" fy="12.142" r="43.527" gradientUnits="userSpaceOnUse"/><radialGradient xlink:href="#prefix__j" id="prefix__n" gradientTransform="scale(1.17954 .8478)" cx="11.827" cy="10.476" fx="11.827" fy="10.476" r="32.665" gradientUnits="userSpaceOnUse"/><radialGradient xlink:href="#prefix__k" id="prefix__ac" gradientTransform="scale(1.03682 .96449)" cx="18.634" cy="17.486" fx="18.934" fy="17.81" r="40.693" gradientUnits="userSpaceOnUse"/><radialGradient r="40.693" fy="17.81" fx="18.934" cy="17.486" cx="18.634" gradientTransform="scale(1.03682 .96449)" gradientUnits="userSpaceOnUse" id="prefix__o" xlink:href="#prefix__k"/><radialGradient r="40.693" fy="17.81" fx="18.934" cy="17.486" cx="18.634" gradientTransform="scale(1.03682 .96449)" gradientUnits="userSpaceOnUse" id="prefix__p" xlink:href="#prefix__k"/><radialGradient r="40.693" fy="17.81" fx="18.934" cy="17.486" cx="18.634" gradientTransform="scale(1.03682 .96449)" gradientUnits="userSpaceOnUse" id="prefix__q" xlink:href="#prefix__k"/><radialGradient r="40.693" fy="17.81" fx="18.934" cy="17.486" cx="18.634" gradientTransform="scale(1.03682 .96449)" gradientUnits="userSpaceOnUse" id="prefix__r" xlink:href="#prefix__k"/><radialGradient r="40.693" fy="17.81" fx="18.934" cy="17.486" cx="18.634" gradientTransform="scale(1.03682 .96449)" gradientUnits="userSpaceOnUse" id="prefix__s" xlink:href="#prefix__k"/><radialGradient r="40.693" fy="17.81" fx="18.934" cy="17.486" cx="18.634" gradientTransform="scale(1.03682 .96449)" gradientUnits="userSpaceOnUse" id="prefix__t" xlink:href="#prefix__k"/><radialGradient r="40.693" fy="17.81" fx="18.934" cy="17.486" cx="18.634" gradientTransform="scale(1.03682 .96449)" gradientUnits="userSpaceOnUse" id="prefix__u" xlink:href="#prefix__k"/><radialGradient r="40.693" fy="17.81" fx="18.934" cy="17.486" cx="18.634" gradientTransform="scale(1.03682 .96449)" gradientUnits="userSpaceOnUse" id="prefix__v" xlink:href="#prefix__k"/><radialGradient r="40.693" fy="17.81" fx="18.934" cy="17.486" cx="18.634" gradientTransform="scale(1.03682 .96449)" gradientUnits="userSpaceOnUse" id="prefix__w" xlink:href="#prefix__k"/><radialGradient r="40.693" fy="17.81" fx="18.934" cy="17.486" cx="18.634" gradientTransform="scale(1.03682 .96449)" gradientUnits="userSpaceOnUse" id="prefix__x" xlink:href="#prefix__k"/><radialGradient r="40.693" fy="17.81" fx="18.934" cy="17.486" cx="18.634" gradientTransform="scale(1.03682 .96449)" gradientUnits="userSpaceOnUse" id="prefix__y" xlink:href="#prefix__k"/><radialGradient r="40.693" fy="17.81" fx="18.934" cy="17.486" cx="18.634" gradientTransform="scale(1.03682 .96449)" gradientUnits="userSpaceOnUse" id="prefix__z" xlink:href="#prefix__k"/><radialGradient r="40.693" fy="17.81" fx="18.934" cy="17.486" cx="18.634" gradientTransform="scale(1.03682 .96449)" gradientUnits="userSpaceOnUse" id="prefix__A" xlink:href="#prefix__k"/><radialGradient r="40.693" fy="17.81" fx="18.934" cy="17.486" cx="18.634" gradientTransform="scale(1.03682 .96449)" gradientUnits="userSpaceOnUse" id="prefix__B" xlink:href="#prefix__k"/><radialGradient r="40.693" fy="17.81" fx="18.934" cy="17.486" cx="18.634" gradientTransform="scale(1.03682 .96449)" gradientUnits="userSpaceOnUse" id="prefix__C" xlink:href="#prefix__k"/><radialGradient r="40.693" fy="17.81" fx="18.934" cy="17.486" cx="18.634" gradientTransform="scale(1.03682 .96449)" gradientUnits="userSpaceOnUse" id="prefix__D" xlink:href="#prefix__k"/><radialGradient r="40.693" fy="17.81" fx="18.934" cy="17.486" cx="18.634" gradientTransform="scale(1.03682 .96449)" gradientUnits="userSpaceOnUse" id="prefix__E" xlink:href="#prefix__k"/><radialGradient r="40.693" fy="17.81" fx="18.934" cy="17.486" cx="18.634" gradientTransform="scale(1.03682 .96449)" gradientUnits="userSpaceOnUse" id="prefix__F" xlink:href="#prefix__k"/><radialGradient r="40.693" fy="17.81" fx="18.934" cy="17.486" cx="18.634" gradientTransform="scale(1.03682 .96449)" gradientUnits="userSpaceOnUse" id="prefix__G" xlink:href="#prefix__k"/><radialGradient r="40.693" fy="17.81" fx="18.934" cy="17.486" cx="18.634" gradientTransform="scale(1.03682 .96449)" gradientUnits="userSpaceOnUse" id="prefix__H" xlink:href="#prefix__k"/><radialGradient r="40.693" fy="17.81" fx="18.934" cy="17.486" cx="18.634" gradientTransform="scale(1.03682 .96449)" gradientUnits="userSpaceOnUse" id="prefix__I" xlink:href="#prefix__k"/><radialGradient r="40.693" fy="17.81" fx="18.934" cy="17.486" cx="18.634" gradientTransform="scale(1.03682 .96449)" gradientUnits="userSpaceOnUse" id="prefix__J" xlink:href="#prefix__k"/><radialGradient r="40.693" fy="17.81" fx="18.934" cy="17.486" cx="18.634" gradientTransform="scale(1.03682 .96449)" gradientUnits="userSpaceOnUse" id="prefix__K" xlink:href="#prefix__k"/><radialGradient r="40.693" fy="17.81" fx="18.934" cy="17.486" cx="18.634" gradientTransform="scale(1.03682 .96449)" gradientUnits="userSpaceOnUse" id="prefix__L" xlink:href="#prefix__k"/><radialGradient r="40.693" fy="17.81" fx="18.934" cy="17.486" cx="18.634" gradientTransform="scale(1.03682 .96449)" gradientUnits="userSpaceOnUse" id="prefix__M" xlink:href="#prefix__k"/><radialGradient r="40.693" fy="17.81" fx="18.934" cy="17.486" cx="18.634" gradientTransform="scale(1.03682 .96449)" gradientUnits="userSpaceOnUse" id="prefix__N" xlink:href="#prefix__k"/><radialGradient r="40.693" fy="17.81" fx="18.934" cy="17.486" cx="18.634" gradientTransform="scale(1.03682 .96449)" gradientUnits="userSpaceOnUse" id="prefix__O" xlink:href="#prefix__k"/><radialGradient r="40.693" fy="17.81" fx="18.934" cy="17.486" cx="18.634" gradientTransform="scale(1.03682 .96449)" gradientUnits="userSpaceOnUse" id="prefix__P" xlink:href="#prefix__k"/><radialGradient r="40.693" fy="17.81" fx="18.934" cy="17.486" cx="18.634" gradientTransform="scale(1.03682 .96449)" gradientUnits="userSpaceOnUse" id="prefix__Q" xlink:href="#prefix__k"/><radialGradient r="40.693" fy="17.81" fx="18.934" cy="17.486" cx="18.634" gradientTransform="scale(1.03682 .96449)" gradientUnits="userSpaceOnUse" id="prefix__R" xlink:href="#prefix__k"/><radialGradient r="40.693" fy="17.81" fx="18.934" cy="17.486" cx="18.634" gradientTransform="scale(1.03682 .96449)" gradientUnits="userSpaceOnUse" id="prefix__S" xlink:href="#prefix__k"/><radialGradient r="40.693" fy="17.81" fx="18.934" cy="17.486" cx="18.634" gradientTransform="scale(1.03682 .96449)" gradientUnits="userSpaceOnUse" id="prefix__T" xlink:href="#prefix__k"/><radialGradient r="40.693" fy="17.81" fx="18.934" cy="17.486" cx="18.634" gradientTransform="scale(1.03682 .96449)" gradientUnits="userSpaceOnUse" id="prefix__U" xlink:href="#prefix__k"/><radialGradient r="40.693" fy="17.81" fx="18.934" cy="17.486" cx="18.634" gradientTransform="scale(1.03682 .96449)" gradientUnits="userSpaceOnUse" id="prefix__V" xlink:href="#prefix__k"/><radialGradient r="40.693" fy="17.81" fx="18.934" cy="17.486" cx="18.634" gradientTransform="scale(1.03682 .96449)" gradientUnits="userSpaceOnUse" id="prefix__W" xlink:href="#prefix__k"/><radialGradient r="40.693" fy="17.81" fx="18.934" cy="17.486" cx="18.634" gradientTransform="scale(1.03682 .96449)" gradientUnits="userSpaceOnUse" id="prefix__X" xlink:href="#prefix__k"/><radialGradient r="40.693" fy="17.81" fx="18.934" cy="17.486" cx="18.634" gradientTransform="scale(1.03682 .96449)" gradientUnits="userSpaceOnUse" id="prefix__Y" xlink:href="#prefix__k"/><radialGradient r="40.693" fy="17.81" fx="18.934" cy="17.486" cx="18.634" gradientTransform="scale(1.03682 .96449)" gradientUnits="userSpaceOnUse" id="prefix__Z" xlink:href="#prefix__k"/><radialGradient r="40.693" fy="17.81" fx="18.934" cy="17.486" cx="18.634" gradientTransform="scale(1.03682 .96449)" gradientUnits="userSpaceOnUse" id="prefix__aa" xlink:href="#prefix__k"/><radialGradient r="40.693" fy="17.81" fx="18.934" cy="17.486" cx="18.634" gradientTransform="scale(1.03682 .96449)" gradientUnits="userSpaceOnUse" id="prefix__ab" xlink:href="#prefix__k"/><linearGradient id="prefix__a"><stop offset="0" stop-color="#505050"/><stop offset="1" stop-color="#181818"/></linearGradient><linearGradient id="prefix__b"><stop offset="0" stop-color="#727e0a"/><stop offset="1" stop-color="#727e0a" stop-opacity="0"/></linearGradient><linearGradient gradientTransform="matrix(.49622 0 0 .32647 -39.193 19.715)" gradientUnits="userSpaceOnUse" y2="28.113" x2="30.936" y1="43.757" x1="30.936" id="prefix__af" xlink:href="#prefix__b"/><linearGradient id="prefix__c"><stop offset="0" stop-color="#4e4e4e"/><stop offset="1" stop-color="#ababab"/></linearGradient><linearGradient gradientUnits="userSpaceOnUse" y2="27.759" x2="18.031" y1="19.804" x1="46.846" id="prefix__ag" xlink:href="#prefix__c" gradientTransform="matrix(-.49507 0 0 .49137 39.023 12.5)"/><linearGradient id="prefix__d"><stop offset="0" stop-color="#4e4e4e"/><stop offset="1" stop-color="#616161" stop-opacity="0"/></linearGradient><linearGradient id="prefix__e"><stop offset="0" stop-color="#525252"/><stop offset="1" stop-color="#525252" stop-opacity="0"/></linearGradient><linearGradient gradientTransform="matrix(-.4583 0 0 .4583 38.285 11.28)" gradientUnits="userSpaceOnUse" y2="24.765" x2="34.007" y1="19.108" x1="31.853" id="prefix__ai" xlink:href="#prefix__e"/><linearGradient id="prefix__f"><stop offset="0" stop-color="#cecece"/><stop offset="1" stop-color="#9e9e9e"/></linearGradient><linearGradient gradientUnits="userSpaceOnUse" y2="18.064" x2="33.711" y1="21.511" x1="31.079" id="prefix__aj" xlink:href="#prefix__f" gradientTransform="matrix(-.4583 0 0 .4583 37.773 11.28)"/><linearGradient id="prefix__k"><stop offset="0" stop-color="#fff"/><stop offset=".379" stop-color="#fefefe"/><stop offset="1" stop-color="#1d1d1d"/></linearGradient><linearGradient id="prefix__j"><stop offset="0" stop-color="#fff"/><stop offset="1" stop-color="#fff" stop-opacity="0"/></linearGradient><linearGradient id="prefix__i"><stop offset="0" stop-color="#fff"/><stop offset="1" stop-color="#fff" stop-opacity=".165"/></linearGradient><linearGradient id="prefix__h"><stop offset="0"/><stop offset="1" stop-opacity="0"/></linearGradient><linearGradient id="prefix__g"><stop offset="0" stop-color="#d3e9ff"/><stop offset=".155" stop-color="#d3e9ff"/><stop offset=".75" stop-color="#4074ae"/><stop offset="1" stop-color="#36486c"/></linearGradient></defs><path d="M45.053 38.909a20.203 7.475 0 11-40.406 0 20.203 7.475 0 1140.406 0z" transform="matrix(1 0 0 1.24324 0 -10.272)" fill="url(#prefix__l)" opacity=".583"/><path d="M43.96 23.485c0 10.71-8.682 19.392-19.39 19.392-10.71 0-19.391-8.682-19.391-19.392 0-10.709 8.681-19.39 19.39-19.39 10.709 0 19.39 8.681 19.39 19.39h0z" fill="url(#prefix__m)" stroke="#39396c"/><path d="M30.709 15.271a12.93 9.293 0 11-25.86 0 12.93 9.293 0 1125.86 0z" transform="matrix(.83594 0 0 1 9.887 0)" opacity=".422" fill="url(#prefix__n)"/><g fill-opacity=".713"><path d="M43.415 20.582c0 .258 0 0 0 0l-.535.606c-.328-.386-.696-.711-1.07-1.051l-.822.12-.75-.847v1.05l.643.486.428.484.571-.646.43.808v.808l-.644.727-1.179.809-.892.89-.571-.648.285-.727-.57-.647-.965-2.06-.82-.93-.216.242.323 1.173.606.687c.346 1 .689 1.955 1.144 2.91.705 0 1.37-.075 2.07-.163v.566l-.857 2.102-.786.888-.642 1.376v2.262l.215.89-.357.403-.787.486-.821.686.68.768-.93.81.179.523-1.393 1.578h-.928l-.786.485h-.5v-.647l-.213-1.295c-.277-.811-.564-1.617-.857-2.423 0-.595.035-1.184.071-1.779l.358-.807-.501-.971.036-1.334-.679-.767.34-1.111-.553-.627h-.965l-.321-.364-.964.607-.393-.446-.893.768-1.82-2.06-.714-1.699.642-.969-.357-.404.785-1.86a67.248 67.248 0 012-2.343l1.214-.324 1.357-.16.928.242 1.321 1.332.465-.524.641-.081 1.215.404h.929l.642-.566.286-.404-.644-.404-1.071-.08c-.298-.413-.574-.847-.927-1.213l-.358.161-.143 1.052-.643-.728-.141-.81-.714-.563h-.287l.715.807-.286.728-.571.16.357-.726-.644-.323-.57-.646-1.072.241-.142.323-.643.405-.357.889-.892.444-.394-.444h-.427v-1.455l.928-.486h.714l-.144-.565-.57-.566.963-.202.536-.606.428-.728h.786l-.215-.565.501-.323v.647l1.07.241 1.071-.888.072-.405.928-.646c-.336.042-.672.072-1 .162v-.728l.357-.809h-.357l-.784.727-.215.405.215.566-.358.97-.57-.324-.5-.565-.786.565-.286-1.293 1.356-.889v-.485l.858-.566 1.356-.323.93.323 1.712.324-.427.484h-.929l.929.97.713-.808.217-.355s2.738 2.454 4.303 5.138c1.565 2.685 2.3 5.85 2.3 6.493zM25.732 9.306l-.072.485.5.323.856-.565-.427-.485-.572.323-.285-.08M26.517 5.993l-1.857-.728-2.141.242-2.643.728-.5.485 1.643 1.131v.647l-.643.646.857 1.699.57-.324.716-1.132a24.577 24.577 0 003.14-1.212l.858-2.182M28.446 12.783l-.286-.729-.5.163.143.888.643-.322"/><path d="M28.73 12.62l-.142.97.785-.162.571-.565-.5-.485c-.167-.447-.36-.865-.57-1.293h-.428v.484l.285.323v.728M18.163 27.977l-.572-1.132-1.071-.242-.572-1.535-1.428.161-1.213-.888-1.286 1.131v.178c-.39-.112-.867-.127-1.214-.34l-.286-.808v-.89l-.856.081.214-1.697h-.5l-.5.647-.5.242-.714-.403-.072-.89.143-.97 1.072-.807h.857l.142-.486 1.071.242.786.97.143-1.617 1.357-1.13.5-1.213 1-.404.57-.808 1.285-.244.644-.969h-1.929l1.214-.566h.857l1.214-.405.143-.483-.429-.405-.5-.162.143-.484-.357-.728-.857.323.143-.646-1-.566-.785 1.373.071.485-.785.324-.5 1.05-.214-.969-1.357-.566-.215-.727 1.786-1.052.786-.727.071-.889-.428-.242-.572-.081-.356.889s-.598.117-.751.155c-1.961 1.807-5.923 5.708-6.844 13.071.037.171.668 1.161.668 1.161l1.5.889 1.499.404.643.81.999.726.571-.08.429.193v.13l-.571 1.535-.43.647.144.324-.357 1.211 1.285 2.345 1.285 1.132.572.807-.072 1.698.43.97-.43 1.859s-.033-.012.021.174c.056.186 2.288 1.426 2.43 1.32.142-.107.263-.201.263-.201l-.143-.403.571-.566.215-.566.928-.325.714-1.778-.214-.484.499-.727 1.072-.243.571-1.294-.143-1.615.857-1.213.143-1.212c-1.172-.582-2.335-1.18-3.499-1.779M16.591 9.63l.714.484h.572V9.55l-.714-.324-.572.404"/><path d="M14.735 8.983l-.358.889h.715l.357-.808c.308-.218.615-.437.928-.647l.715.243 1.428.97.714-.647-.786-.323-.357-.728-1.357-.162-.071-.404-.643.162-.286.566-.357-.728-.142.324.071.808-.571.485"/><g><path d="M17.305 6.962l.357-.323.715-.162c.489-.238.98-.398 1.5-.566l-.286-.485-.922.133-.435.434-.718.104-.639.3-.31.15-.19.254.928.16"/></g><g><path d="M18.52 14.64l.428-.646-.643-.484.214 1.13"/></g></g><g style="marker:none" transform="translate(-.081 .03) scale(.98237)" color="#000" fill="url(#prefix__o)" stroke-width="1.018"><path d="M44.071 20.714c0 .263 0 0 0 0l-.545.618c-.334-.394-.709-.725-1.09-1.07l-.835.122-.764-.863v1.068l.654.495.436.494.582-.659.436.824v.822l-.655.74-1.2.823-.907.907-.582-.66.29-.74-.58-.659-.982-2.098-.836-.945-.219.246.328 1.194.618.699c.352 1.017.7 1.99 1.164 2.963.718 0 1.394-.076 2.107-.166v.576l-.872 2.14-.8.903-.654 1.4v2.303l.219.907-.364.41-.8.494-.836.7.691.78-.945.825.181.533-1.417 1.605h-.945l-.8.495h-.51v-.659l-.216-1.318c-.282-.826-.574-1.647-.872-2.467 0-.605.036-1.205.072-1.81l.364-.823-.51-.988.038-1.357-.692-.782.346-1.13-.563-.639h-.982l-.327-.37-.982.618-.399-.454-.91.782c-.616-.7-1.235-1.399-1.853-2.098l-.726-1.729.654-.986-.363-.411.799-1.894c.656-.816 1.341-1.6 2.035-2.385l1.236-.33 1.381-.163.945.247 1.345 1.356.473-.534.653-.082 1.236.41h.946l.654-.575.29-.411-.654-.411-1.091-.082c-.303-.42-.584-.862-.944-1.235l-.364.164-.145 1.07-.655-.74-.144-.824-.727-.574h-.292l.728.822-.291.74-.581.164.363-.74-.655-.328-.58-.658-1.092.246-.145.328-.654.412-.363.906-.909.452-.4-.452h-.436v-1.482l.946-.494h.726l-.146-.575-.58-.576.98-.206.545-.617.436-.74h.8l-.218-.576.51-.33v.66l1.09.245 1.09-.904.072-.412.945-.658c-.342.043-.684.074-1.018.165v-.741l.363-.823h-.363l-.798.74-.22.412.22.576-.365.987-.58-.33-.509-.575-.8.575-.291-1.315 1.38-.905v-.494l.874-.576 1.38-.33.946.33 1.744.33-.436.492h-.945l.945.988.727-.823.22-.362s2.788 2.498 4.38 5.231c1.593 2.733 2.341 5.955 2.341 6.61z" style="marker:none" fill="url(#prefix__r)" overflow="visible"/><path d="M26.07 9.236l-.073.493.51.33.871-.576-.436-.494-.582.33-.29-.083" style="marker:none" fill="url(#prefix__u)" overflow="visible"/><path d="M26.87 5.863l-1.89-.74-2.18.246-2.69.74-.51.495 1.672 1.15v.66l-.654.657.873 1.73.58-.33.729-1.152c1.123-.347 2.13-.74 3.197-1.235l.873-2.22" style="marker:none" fill="url(#prefix__x)" overflow="visible"/><path d="M28.833 12.775l-.291-.741-.51.165.147.904.654-.328" style="marker:none" fill="url(#prefix__A)" overflow="visible"/><path d="M29.123 12.609l-.146.988.8-.165.581-.575-.508-.494c-.171-.455-.368-.88-.582-1.316h-.435v.493l.29.329v.74" style="marker:none" fill="url(#prefix__D)" overflow="visible"/><path d="M18.365 28.242l-.582-1.152-1.09-.247-.582-1.562-1.453.164-1.236-.904-1.309 1.151v.182c-.396-.115-.883-.13-1.235-.347l-.291-.822v-.906l-.872.082.218-1.727h-.51l-.508.658-.509.246-.727-.41-.073-.905.146-.988 1.09-.822h.873l.145-.494 1.09.246.8.988.145-1.646 1.382-1.152.508-1.234 1.018-.411.581-.822 1.309-.248.654-.987h-1.963l1.236-.576h.872l1.236-.412.146-.492-.437-.412-.509-.165.146-.493-.363-.74-.873.327.145-.657-1.017-.577-.8 1.398.073.494-.8.33-.509 1.07-.217-.987-1.382-.577-.218-.74 1.817-1.07.8-.74.073-.905-.436-.247-.582-.083-.363.906s-.608.119-.764.157c-1.996 1.84-6.03 5.81-6.966 13.306.037.174.679 1.182.679 1.182l1.526.904 1.527.413.654.823 1.018.74.581-.082.436.196v.133l-.581 1.563-.437.658.146.33-.363 1.233 1.308 2.386 1.308 1.153.582.822-.073 1.729.437.986-.437 1.892s-.034-.011.022.178c.056.19 2.329 1.451 2.473 1.344l.267-.205-.145-.41.581-.577.219-.576.945-.33.727-1.81-.218-.493.508-.74 1.09-.248.582-1.316-.145-1.645.872-1.234.146-1.235c-1.194-.591-2.378-1.2-3.562-1.81" style="marker:none" fill="url(#prefix__G)" overflow="visible"/><path d="M16.766 9.565l.726.494h.582v-.576l-.726-.33-.582.412" style="marker:none" fill="url(#prefix__J)" overflow="visible"/><path d="M14.876 8.907l-.364.905h.727l.364-.823c.314-.222.626-.445.945-.658l.727.247c.484.33.969.658 1.454.987l.727-.658-.8-.329-.364-.74-1.38-.165-.074-.412-.654.165-.29.576-.364-.74-.145.328.073.823-.582.494" style="marker:none" fill="url(#prefix__M)" overflow="visible"/><path d="M17.492 6.85l.364-.329.727-.165c.498-.242.998-.405 1.527-.576l-.29-.494-.939.135-.443.442-.731.106-.65.305-.316.153-.193.259.944.164" style="marker:none" fill="url(#prefix__Z)" overflow="visible"/><path d="M18.729 14.666l.436-.658-.655-.493.218 1.151" style="marker:none" fill="url(#prefix__ac)" overflow="visible"/></g><path d="M42.975 23.486c0 10.165-8.241 18.406-18.406 18.406S6.163 33.652 6.163 23.486C6.163 13.32 14.404 5.08 24.57 5.08s18.406 8.24 18.406 18.406h0z" fill="none" stroke="url(#prefix__ad)"/><rect ry=".707" rx=".707" y="13.504" x="-32.494" height="20.951" width="15.998" style="marker:none" transform="scale(-1 1)" color="#000" fill="url(#prefix__ae)" fill-rule="evenodd" stroke="#39396c" stroke-miterlimit="10" overflow="visible"/><path style="marker:none" transform="scale(-1 1)" color="#000" fill="url(#prefix__af)" fill-rule="evenodd" overflow="visible" d="M-32 27.825h15V34h-15z"/><path d="M32.06 34.125L32 14l-10.78.147-.022 13.889 10.861 6.089z" style="marker:none" color="#000" fill="url(#prefix__ag)" fill-rule="evenodd" overflow="visible"/><path style="marker:none" d="M31.501 14.44l-9.823.062v13.23l9.948 5.437-.125-18.73z" opacity=".337" color="#000" fill="none" stroke="#fff" stroke-miterlimit="10" overflow="visible"/><path style="marker:none" d="M31.978 33.334L32 14H21.28l-.036 13.86 10.734 5.474z" color="#000" fill="url(#prefix__ah)" fill-rule="evenodd" overflow="visible"/><path d="M24.188 19.739l-.881 1.124.668 2.207s-.121.689-.476.223c-.354-.466-1.362-1.642-1.184-2.501.131-.638.496-.942.496-.942l1.377-.111z" style="marker:none" color="#000" fill="url(#prefix__ai)" fill-rule="evenodd" overflow="visible"/><path d="M23.348 19.232s-.992.46-1.023.861c-.047.597 1.944 2.491 1.944 2.491.233.284.618.03.405-.243 0 0-1.589-1.887-1.489-2.035.126-.186.902-.476.902-.476.466-.345-.123-1.057-.74-.598z" style="marker:none" color="#000" fill="url(#prefix__aj)" fill-rule="evenodd" overflow="visible"/></svg>