<svg xmlns="http://www.w3.org/2000/svg" width="800" height="800" viewBox="0 0 24 24" fill="none"><g fill="#fcfcfc"><use href="#prefix__B"/><use href="#prefix__C"/><use href="#prefix__B" x="4.242"/><use href="#prefix__C" y="4.242"/><path d="M6 13H4v-2h2V9h2v2h2v2H8v2H6v-2z"/><path fill-rule="evenodd" d="M7 5a7 7 0 100 14h10a7 7 0 100-14H7zm10 2H7a5 5 0 100 10h10a5 5 0 100-10z"/></g><defs><path id="prefix__B" d="M15.47 11.293a1 1 0 00-1.414 1.414 1 1 0 001.414-1.414z"/><path id="prefix__C" d="M16.177 9.172a1 1 0 011.414 1.414 1 1 0 01-1.414-1.414z"/></defs></svg>