<svg xmlns="http://www.w3.org/2000/svg" width="800" height="800" viewBox="0 0 24 24" fill="#fafafa" fill-rule="evenodd"><path d="M12 8.25a3.75 3.75 0 100 7.5 3.75 3.75 0 100-7.5zM9.75 12a2.25 2.25 0 114.5 0 2.25 2.25 0 11-4.5 0zm2.225-10.75l-1.12.021c-.317.022-.617.068-.907.189A2.75 2.75 0 008.46 2.948c-.145.351-.185.72-.2 1.122a.865.865 0 01-.416.731.87.87 0 01-.841-.006c-.356-.188-.695-.339-1.072-.388a2.75 2.75 0 00-2.033.545c-.249.191-.44.427-.617.691l-.578.96-.025.044-.542.98c-.14.285-.249.568-.29.88a2.75 2.75 0 00.545 2.033c.231.301.532.52.872.734.274.172.426.448.426.726s-.152.554-.426.726c-.34.214-.641.433-.872.734a2.75 2.75 0 00-.545 2.033 2.82 2.82 0 00.29.88l.542.98.025.044.578.96c.177.264.367.5.617.691a2.75 2.75 0 002.033.545c.376-.05.716-.2 1.072-.388.286-.151.601-.145.841-.006s.404.408.416.732c.015.402.054.771.2 1.122a2.75 2.75 0 001.488 1.488c.29.12.59.167.907.188l1.12.021h.05l1.12-.021c.317-.022.617-.068.907-.188a2.75 2.75 0 001.488-1.488c.145-.351.185-.72.2-1.122.012-.323.175-.593.416-.732s.556-.145.841.006c.356.188.695.339 1.072.388a2.75 2.75 0 002.033-.545c.249-.191.439-.427.617-.691l.578-.96.025-.044.542-.981c.14-.285.249-.568.29-.88a2.75 2.75 0 00-.545-2.033c-.231-.301-.532-.52-.872-.734-.274-.172-.426-.448-.426-.726s.152-.554.426-.726c.341-.214.641-.433.872-.734a2.75 2.75 0 00.545-2.033 2.82 2.82 0 00-.29-.88c-.134-.274-.32-.595-.542-.98l-.025-.044-.578-.96a2.795 2.795 0 00-.617-.691 2.75 2.75 0 00-2.033-.545c-.376.05-.716.2-1.072.388-.286.151-.601.145-.841.006s-.404-.408-.416-.732c-.015-.402-.054-.772-.2-1.122a2.75 2.75 0 00-1.488-1.488 2.84 2.84 0 00-.907-.189c-.305-.021-.676-.021-1.12-.021h-.05zm-1.453 1.595c.077-.032.194-.061.435-.078.248-.017.567-.017 1.043-.017l1.043.017a1.36 1.36 0 01.435.078 1.25 1.25 0 01.676.677c.04.097.073.247.087.604.03.792.439 1.555 1.165 1.975s1.591.392 2.292.021c.316-.167.463-.214.567-.227a1.25 1.25 0 01.924.248c.066.051.15.138.285.338l.537.895.507.912a1.38 1.38 0 01.15.416 1.25 1.25 0 01-.248.924c-.064.083-.177.187-.48.377-.671.422-1.127 1.158-1.128 1.996s.456 1.574 1.128 1.996c.303.19.416.294.48.377a1.25 1.25 0 01.248.924 1.38 1.38 0 01-.15.416 16.89 16.89 0 01-.507.912l-.537.895c-.135.2-.219.287-.285.338a1.25 1.25 0 01-.924.248c-.104-.014-.251-.06-.567-.227-.701-.371-1.566-.398-2.292.021s-1.135 1.182-1.165 1.974c-.013.357-.046.508-.087.604a1.25 1.25 0 01-.676.677 1.38 1.38 0 01-.435.078c-.247.017-.567.017-1.043.017s-.796 0-1.043-.017a1.36 1.36 0 01-.435-.078 1.25 1.25 0 01-.676-.677c-.04-.097-.073-.247-.087-.604-.03-.792-.439-1.555-1.165-1.974s-1.591-.392-2.292-.021c-.316.167-.463.214-.567.227a1.25 1.25 0 01-.924-.248c-.066-.051-.15-.138-.285-.338l-.537-.895-.507-.912c-.106-.217-.139-.333-.15-.416a1.25 1.25 0 01.248-.924c.064-.083.178-.187.48-.377.671-.422 1.128-1.158 1.128-1.996s-.456-1.574-1.128-1.996c-.303-.19-.416-.294-.48-.377a1.25 1.25 0 01-.248-.924c.011-.083.044-.199.15-.416a16.89 16.89 0 01.507-.912l.537-.895c.135-.2.219-.287.285-.338a1.25 1.25 0 01.924-.248c.104.014.251.06.567.227.701.371 1.566.398 2.292-.021s1.135-1.182 1.165-1.974c.013-.357.047-.508.087-.604a1.25 1.25 0 01.676-.677z"/></svg>