<svg xmlns="http://www.w3.org/2000/svg" width="400" height="99.259" fill-rule="evenodd"><path d="M32.936 41.978c-.259.287-.278 1.104-.234 10.209.054 11.173.019 10.853 1.2 10.95 1.78.146 2.098-.574 2.098-4.756 0-4.058.134-4.214 3.62-4.214 5.018 0 6.365 1.063 6.376 5.033.009 3.209.695 4.18 2.726 3.855l.651-.104-.099-1.267c-.485-6.157-.621-6.906-1.356-7.516-.149-.124-.467-.559-.706-.968l-.436-.743.855-.803c1.965-1.845 2.018-6.833.088-8.232-2.44-1.769-2.284-1.739-9.068-1.748-5.101-.007-5.45.012-5.715.304m52.006-.007c-1.23 1.36.964 3.292 2.306 2.031.569-.535.596-1.692.048-2.076-.534-.374-1.999-.346-2.354.045m-41.256 2.531c.381.107.915.499 1.458 1.073l.856.905v1.235c0 2.995-1.417 3.941-5.917 3.947-3.868.006-4.049-.17-4.07-3.965-.014-2.439.074-2.755.869-3.103.646-.282 5.862-.353 6.804-.092m218.737.325c-.324.358-.259.959.175 1.631.224.346.368.376 1.864.379 3.48.008 3.371-.248 3.371 7.971v6.662l.503.423c.486.409.527.415 1.194.18 1.217-.43 1.137.094 1.137-7.44v-6.825l.487-.487c.477-.477.524-.488 2.243-.488 1.916 0 1.996-.034 2.653-1.152l.299-.51-.549-.335c-.844-.514-12.912-.523-13.377-.009m74.183.024c-.214.306-.216.452-.011 1.125l.237.816c.003.078.792.042 1.299-.06.675-.135 1.071-1.399.601-1.919-.419-.463-1.792-.438-2.126.038m5.764-.092l-.37.26V61.398l.436.455c.465.486.665.478 1.439-.058l.458-.318V45.038l-.567-.269c-.705-.335-.929-.337-1.396-.01m21.921.862c-.785.082-1.124.656-1.124 1.897 0 .795-.056.92-.67 1.504-.818.778-1.125 2.029-.544 2.213 1.061.337 1.123.597 1.214 5.07.106 5.241.513 6.028 3.115 6.028 2.169 0 2.933-1.067 1.137-1.589-1.513-.44-1.494-.383-1.558-4.755l-.055-3.81.404-.404c.228-.228.708-.455 1.105-.522l.702-.118-.05-.769c-.05-.757-.061-.771-.775-.944-1.009-.244-1.359-.733-1.359-1.899-.001-.902-.461-2.067-.789-1.995a13.95 13.95 0 01-.753.093m-50.095.431c-.275.293-.363.593-.363 1.238 0 .987-.556 1.704-1.583 2.043-.561.185-.583.224-.583 1.009v.815l.84.362c1.335.574 1.326.542 1.33 4.726.004 5.514.156 5.855 2.68 6.033 1.418.1 1.424.099 1.799-.378l.377-.478-.407-.336a7.04 7.04 0 00-.938-.624c-1.049-.571-1.348-1.682-1.348-5.019v-2.881l.458-.432c.252-.238.74-.548 1.084-.689.605-.249.625-.284.625-1.097s-.02-.848-.625-1.101c-1.069-.446-1.542-1.026-1.542-1.89 0-1.328-1.06-2.092-1.804-1.301M58.185 47.503c-.854.093-1.365.241-1.667.483a17.34 17.34 0 01-1.019.742c-.777.52-1.713 1.572-1.949 2.19l-.661 1.665c-.522 1.298-.671 3.993-.277 5l.641 1.667c.498 1.303 1.425 2.401 2.492 2.952.364.188.853.483 1.086.656 2.883 2.131 10.595-1.824 8.072-4.139l-.398-.365-.794.429c-.437.235-1.102.771-1.477 1.189l-.683.76-1.6.07c-2.529.111-3.249-.372-4.211-2.828l-.407-1.07c0-.524 1.033-.656 5.767-.737 3.947-.068 4.905-.13 5.146-.33.412-.343.242-2.817-.246-3.578-.18-.28-.587-1.053-.904-1.717s-.653-1.209-.747-1.209-.587-.34-1.098-.756c-1.362-1.11-2.502-1.351-5.066-1.074m38.687.006c-1.24.153-1.872.377-1.872.665 0 .089-.356.382-.792.65s-.927.717-1.092.998-.364.511-.44.511c-.624 0-1.613 4.499-1.337 6.084.559 3.211 1.658 5.337 2.925 5.655.207.052.591.275.853.495 1.131.952 4.238 1.145 5.745.358l1.658-.858c.491-.25.843-.569.972-.88.111-.268.368-.644.572-.835.403-.379.422-1.351.032-1.675-.66-.547-1.369-.247-3.129 1.323l-.84.75-1.488.059c-2.326.091-3.723-.887-4.141-2.901-.358-1.725-.308-1.741 5.313-1.741 5.719 0 5.456.111 5.282-2.233-.096-1.287-.187-1.631-.602-2.267a15.95 15.95 0 01-.827-1.45 3.21 3.21 0 00-.876-1.068 11.91 11.91 0 01-1.038-.822c-.878-.798-2.642-1.093-4.878-.818m62.957-.024c-2.804.396-4.87 3.507-3.758 5.657.644 1.246 2.757 2.613 4.445 2.875 2.499.389 5.007 1.664 4.977 2.531-.103 3.031-5.154 3.261-7.185.327-.837-1.208-2.197-1.022-2.451.336-.528 2.828 5.867 5.496 9.024 3.763l1.245-.676c2.153-1.162 3.142-4.458 1.733-5.774-.263-.246-.528-.603-.588-.792-.131-.411-.495-.608-1.938-1.044-.596-.18-1.421-.476-1.833-.657s-1.279-.418-1.926-.524c-1.349-.221-1.826-.548-2.481-1.701l-.441-.778.55-.419c1.533-1.17 4.486-1.006 5.29.294.617 1 3.497 1.011 3.114.013-.048-.126-.17-.534-.27-.908a1.63 1.63 0 00-.801-1.072c-.34-.216-.761-.552-.935-.747-.579-.647-3.584-1.014-5.771-.704m25.072.03c-1.089.135-2.234.538-2.234.787 0 .083-.338.331-.751.55-.496.263-.842.596-1.02.981a4.602 4.602 0 01-.656 1c-1.195 1.291-1.383 6.988-.283 8.549.253.359.656.99.896 1.403.504.867 2.875 2.257 4.284 2.512 2.806.507 6.138-.898 7.349-3.098.287-.522.669-1.136.848-1.366.804-1.026.757-5.784-.068-6.979a10.98 10.98 0 01-.8-1.467c-.427-.964-2.631-2.631-3.689-2.79-1.097-.165-2.898-.203-3.876-.082m19.016-.076c-.863.129-1.477.432-2.205 1.091-.838.757-1.109.79-1.489.178-.768-1.236-1.77-1.59-2.686-.949l-.37.26.012 6.865c.016 8.216.01 8.176 1.275 8.249 1.431.084 1.445.033 1.554-5.542.098-5.061.019-4.612 1.131-6.424 1.188-1.936 4.338-1.795 5.611.252l.5.804.083 4.93c.1 5.88.133 6.014 1.484 6.014 1.304 0 1.259.207 1.317-6.151.059-6.47.049-6.535-1.224-8.039-1.131-1.336-2.833-1.86-4.993-1.538m-135.324.384c-.387.427-.226 1.459.404 2.594.254.458.586 1.395.737 2.083s.499 1.679.772 2.204.611 1.498.751 2.161.44 1.526.669 1.916.558 1.28.733 1.979c.453 1.812 1.323 2.498 3.015 2.376l.734-.053.825-1.5c.543-.989.955-2.029 1.209-3.053.212-.854.535-1.764.718-2.021s.488-1.133.678-1.946.532-1.797.761-2.188.566-1.404.748-2.251l.417-1.822c.12-.398-.515-.692-1.417-.658-1.203.045-1.422.29-1.753 1.958-.16.803-.475 1.813-.7 2.244s-.558 1.52-.739 2.42c-.344 1.711-.616 2.306-1.6 3.508-.867 1.058-1.121.782-1.636-1.785-.155-.773-.469-1.73-.698-2.126s-.559-1.433-.734-2.305c-.365-1.815-1.224-3.551-1.911-3.864-.67-.305-1.648-.242-1.983.129m17.295-.191c-1.173.088-1.133-.154-1.184 7.185-.055 7.841-.03 8.02 1.136 8.221 1.755.304 1.818.033 1.823-7.725.005-7.932.032-7.816-1.775-7.681m22.197-.008c-1.216.124-1.306.55-.485 2.304.217.464.515 1.477.661 2.25s.479 1.893.74 2.489.6 1.757.754 2.582.449 1.836.655 2.25.535 1.276.731 1.918c.502 1.646.522 1.666 1.645 1.666 1.839 0 2.29-.613 2.79-3.798.141-.898.376-1.864.522-2.147s.442-1.223.656-2.088.518-1.769.675-2.009l.286-.436.375.437c.253.294.44.839.571 1.656.185 1.163.313 1.619.921 3.286.147.403.372 1.431.5 2.285.287 1.913.425 2.179 1.339 2.584 1.672.739 3.078-.33 3.079-2.342 0-.143.224-.734.498-1.313s.643-1.78.822-2.671.515-1.993.747-2.449.565-1.54.74-2.411.509-2.034.743-2.584c.487-1.144.465-1.195-.599-1.393-1.626-.304-2.418.676-2.875 3.56-.146.917-.472 2.192-.725 2.833a24.76 24.76 0 00-.747 2.25c-.158.596-.426 1.267-.595 1.491l-.308.406-.332-.545c-.182-.3-.456-1.224-.608-2.054s-.453-1.931-.669-2.445-.521-1.798-.675-2.852c-.381-2.584-.505-2.735-2.236-2.691-1.611.041-1.674.128-2.092 2.89-.134.889-.43 2.057-.656 2.596s-.534 1.686-.683 2.55c-.511 2.96-1.115 3.061-1.927.321-.204-.687-.506-1.521-.672-1.852s-.456-1.525-.645-2.654c-.405-2.412-.806-3.337-1.614-3.722-.313-.15-.586-.259-.606-.244s-.335.059-.701.096m31.582.209c-.352.352-.493 8.918-.187 11.366.413 3.305 5.154 5.538 7.497 3.532.157-.134.669-.422 1.14-.64l.855-.396.69.736c.942 1.005 2.149 1.018 2.494.027.272-.778.243-14.366-.031-14.581-.461-.364-1.738-.384-2.181-.035l-.421.331-.058 4.788c-.041 3.411-.118 4.909-.267 5.206-1.199 2.383-1.564 2.641-3.765 2.657l-1.318.009-.639-.672c-1.249-1.313-1.22-1.152-1.28-6.952-.053-5.108-.061-5.213-.412-5.458-.529-.371-1.711-.324-2.117.082m141.789 1.406c-.346.123-.963.532-1.372.909-.912.841-.823.846-1.672-.079-.692-.753-.711-.762-1.428-.62-1.079.213-1.123.472-1.138 6.727-.014 5.911-.049 5.738 1.2 5.969 1.353.25 1.453-.012 1.458-3.792.004-3.451.113-4.188.714-4.83.226-.242.532-.68.68-.974.277-.549 1.011-.879 1.959-.881 1.121-.003 1.657-1.632.782-2.376-.402-.343-.376-.341-1.183-.053m21.794-.124a3.938 3.938 0 00-2.017.874 7.634 7.634 0 01-1.009.693c-.399.215-.528.436-.683 1.167-.483 2.291.713 3.907 3.243 4.381 1.645.309 3.356 1.003 4.164 1.691l.593.504-.234.826c-.546 1.935-3.646 2.232-5.076.486-.991-1.209-2.306-1.409-2.652-.404-.315.916.844 2.486 2.042 2.767l1.372.337c2.374.598 5.644-.249 6.368-1.649.92-1.78.794-3.508-.323-4.437-1.322-1.099-1.501-1.182-3.147-1.456-2.207-.368-3.344-.978-3.735-2.005-.67-1.764 3.358-2.302 4.769-.637.747.882 2.292.838 2.379-.068.085-.887-.099-1.324-.681-1.618a4.904 4.904 0 01-.956-.661c-.729-.68-2.639-1.022-4.417-.791m24 .05c-.918.126-1.417.302-1.417.499 0 .6-2.147.689-2.826.117-1.54-1.295-1.666-.647-1.67 8.601-.004 9.224.159 10.052 1.673 8.461l.657-.69v-1.668c0-2.295.713-2.967 2.447-2.306 3.157 1.204 6.483-.459 7.124-3.563.429-2.076.265-5.294-.328-6.449-.282-.55-1.684-2-1.933-2-.108 0-.428-.178-.713-.395-.451-.344-.826-.475-1.931-.676-.137-.024-.625.007-1.083.069m25.041.009c-.436.073-1.149.338-1.584.589a42.71 42.71 0 01-1.429.788c-.351.182-.709.517-.795.745s-.437.948-.778 1.601c-.836 1.598-.937 4.56-.195 5.699.234.36.523.894.641 1.187.406 1.004 1.831 2.156 2.945 2.38l1.6.331c.662.142 3.441-.285 4.076-.627.434-.233 1.895-1.835 1.895-2.078 0-.096.189-.423.421-.727.837-1.097.973-4.285.247-5.777-1.059-2.176-1.283-2.479-2.192-2.966-2.21-1.185-3.2-1.419-4.852-1.145m-65.893.287c-1.005.665-1.092 9.51-.112 11.513.636 1.302 2.878 1.86 5.038 1.253 1.837-.516 2.581-.565 3.474-.225l.824.313.439-.458.439-.459v-5.096c0-6.157-.185-7.15-1.281-6.864-.949.248-1.185 1.208-1.246 5.062l-.057 3.583-.526 1.111c-.636 1.343-.956 1.541-2.475 1.533-1.526-.008-1.814-.188-2.446-1.525l-.528-1.119-.071-3.664c-.061-3.15-.114-3.75-.38-4.272-.353-.692-.727-.927-1.092-.686m50.464.087c-.644.777-.815 11.543-.196 12.33.41.521 1.558.475 2.042-.08.352-.404.445-10.208.11-11.54-.218-.864-1.455-1.313-1.956-.71m-275.784.59c.585.197.928.437 1.167.816 1.102 1.751 1.057 1.636.836 2.162-.36.856-1.06 1.051-3.777 1.051-3.237 0-4.011-.557-3.265-2.351.716-1.724 2.819-2.424 5.039-1.678m38.555-.049c.534.158.971.414 1.155.675.162.231.538.722.834 1.091.553.687.503 1.417-.139 2.062-.323.324-5.964.319-6.323-.007-2.121-1.919 1.231-4.784 4.473-3.821m88.378.01c1.17.343 1.425.596 2.29 2.273 1.3 2.518 1.084 4.411-.824 7.232-1.034 1.531-4.699 1.756-5.663.348a11.78 11.78 0 00-.821-1.035c-1.226-1.352-1.238-5.613-.02-7.14.336-.421.723-.922.86-1.113.52-.723 2.656-1.012 4.178-.565m166.673 1.418c2.74.683 3.491 5.606 1.228 8.051-3.596 3.886-8.678-2.443-5.429-6.761.697-.927 1.017-1.139 2.184-1.448.579-.153.861-.131 2.017.158m-25.64.133c1.783.764 2.607 3.873 1.705 6.43-.657 1.862-1.603 2.587-3.379 2.587h-1.223l-.883-.835c-2.223-2.102-1.906-7.355.497-8.235.947-.347 2.405-.323 3.283.053m-83.14 2.017c-.281.181-.61.512-.73.736-.198.37-.468.531-1.396.831-.553.18-.188.515.616.567.933.061 2.264-.503 2.993-1.268l.47-.493-.496-.353c-.609-.434-.805-.437-1.457-.02" fill="#323232"/><path d="M0 1.5c0 1.906.463 2.155 1.176.632.351-.748.505-.9 1.116-1.097C3.742.565 3.31 0 1.5 0H0v1.5M397 .385c0 .3.19.474.868.791.748.351.9.505 1.097 1.116.47 1.45 1.035 1.018 1.035-.792V0h-1.5c-1.456 0-1.5.011-1.5.385M4.059 3.115c-1.068.21-.976-4.189-.976 46.481v45.728l.38.38.38.379h392.314l.38-.379.38-.38V3.843l-.38-.38-.38-.38-195.87-.019c-107.729-.01-196.031.013-196.228.051m237.894 30.096c.968 1.575 1.025 1.719 1.299 3.303.196 1.13.405 1.77.746 2.286.32.482.536 1.107.662 1.916.329 2.101.276 1.989 1.266 2.659l.675.458h4.762c5.503 0 5.723.026 6.15.728.403.663.206.984-.994 1.626-.484.258-1.025.654-1.202.879a2.13 2.13 0 01-.861.588c-.297.098-.749.441-1.005.762s-.559.584-.674.584-.65.374-1.191.831-1.212.907-1.492 1c-.611.202-1.18 1.377-1.028 2.122.052.255.135 1.026.186 1.714.125 1.711.222 2.113.665 2.766.364.536.461.867.917 3.124.108.535.383 1.248.611 1.583.799 1.177.138 3.074-.797 2.287a2.74 2.74 0 00-.973-.508c-.275-.061-.697-.345-.939-.633a3.55 3.55 0 00-1.046-.798c-.334-.151-.752-.437-.929-.636s-.725-.593-1.218-.875-.985-.661-1.094-.842-.555-.512-.991-.735-.791-.474-.791-.558c0-1.016-2.334-1.022-3.251-.008-.183.202-.626.518-.985.701a5.26 5.26 0 00-1.187.899c-.293.311-.644.566-.779.566s-.482.261-.772.579a4.65 4.65 0 01-1.068.856c-.298.153-.827.533-1.175.845-.954.855-2.108 1.162-2.583.687-.461-.461.032-3.646.717-4.635.284-.409.507-1.088.676-2.062.284-1.626.477-2.22.855-2.639.569-.628.732-2.07.283-2.498-.221-.211-.607-.595-.858-.853s-.695-.571-.985-.695-.656-.418-.812-.655-.592-.573-.971-.746-.939-.549-1.245-.836-.848-.671-1.203-.853-.73-.486-.832-.676-.435-.451-.74-.579c-1.112-.464-1.495-1.678-.694-2.199.106-.068 2.699-.162 5.763-.208l5.571-.083.448-1.379c.247-.758.574-1.517.727-1.687s.391-.899.528-1.621c.371-1.954.571-2.61.906-2.98.321-.353.566-1.162.744-2.457.265-1.933 1.169-2.103 2.208-.415M46.238 41.303c.268.116.762.452 1.097.746s.838.657 1.118.807c.38.204.581.497.8 1.167.161.491.47 1.231.687 1.642.513.976.533 2.33.049 3.258-.19.363-.495 1.134-.677 1.714-.271.857-.439 1.116-.906 1.391-.688.406-.712.619-.133 1.151.592.545 1.007 1.53 1.153 2.738.066.55.228 1.3.359 1.666.7 1.962.948 5.492.416 5.923-.802.65-3.451.592-4.133-.09-.394-.394-.424-.568-.696-4.041-.121-1.551-.207-1.939-.498-2.25-.193-.206-.499-.72-.679-1.141l-.328-.766-1.292-.109c-2.589-.219-4.83-.139-5.119.183-.216.241-.271.9-.318 3.791-.039 2.441-.12 3.613-.268 3.874-.566.992-3.246 1.421-4.129.661l-.491-.422-.046-10.684-.047-10.684.425-.425.424-.424 6.372.056c4.673.041 6.502.112 6.86.268m42.001.261c2.097 1.599-1.038 4.703-3.449 3.413-1.015-.543-1.06-3.28-.063-3.792.702-.361 2.846-.129 3.512.379m188.187 2.465c.685.376.892.889.746 1.849-.22 1.453-.891 1.786-3.597 1.788-2.279.001-2.075-.691-2.075 7.031 0 7.276-.042 7.627-.978 8.18-.897.53-1.724.542-2.539.038-1.398-.865-1.308-.316-1.313-8.013l-.003-6.848-.425-.194c-.233-.106-1.13-.193-1.992-.193-2.172 0-2.834-.41-3.161-1.954-.143-.677.527-1.636 1.306-1.87 1.003-.301 13.443-.136 14.031.186m62.716.022c1.298 1.066.331 3.616-1.371 3.616-1.722 0-2.535-1.506-1.747-3.237.328-.719 2.398-.971 3.118-.379m4.983-.122a2.08 2.08 0 01.833.446l.375.35v8.463c0 9.596.062 9.136-1.303 9.76-1.11.508-1.466.435-2.447-.506l-.75-.718V44.891l.401-.376c.492-.463 1.552-.851 2.058-.754l.833.168m-28.386.74c1.007.499 1.327 1.044 1.403 2.39l.064 1.144.902.399c.497.219.949.52 1.006.667.149.388 1.491.18 2.015-.312.33-.309.547-.363 1.26-.314 1.234.084 2.743.065 4.989-.065 2.409-.14 2.911-.053 3.822.667 2.13 1.684 2.299 1.903 2.615 3.398.104.491.337 1.081.518 1.311.719.914.75 3.067.057 4.006-.186.251-.434.869-.553 1.373-.272 1.158-.585 1.782-.96 1.911-.162.055-.445.341-.629.636-.234.374-.57.612-1.11.787-.426.137-.914.377-1.084.532-.834.761-3.01.731-4-.056-1.1-.874-1.387-.497-1.388 1.826-.002 2.632-.423 3.266-2.174 3.276-1.531.008-2.308-1.019-2.329-3.078-.027-2.732-.441-3.345-1.524-2.262-.834.834-1.989.935-2.972.261-.229-.158-.698-.378-1.041-.489-.633-.205-1.126-.715-1.126-1.163 0-.136-.192-.523-.427-.863-.424-.612-.428-.643-.459-4.275-.033-3.968-.062-4.098-.96-4.296-.645-.141-.821-.514-.821-1.736 0-1.097.15-1.343 1.141-1.878.47-.253.526-.364.526-1.031 0-2.124 1.665-3.546 3.239-2.766m49.888.039c.517.553.706 1.187.706 2.366 0 1.223.099 1.34 1.25 1.485 1.126.142 1.584.655 1.584 1.774s-.458 1.633-1.584 1.775c-1.286.162-1.252.067-1.233 3.371.021 3.787.07 3.903 1.962 4.681 1.563.642.929 2.917-.924 3.312-.807.172-1.967-.013-2.386-.38-.138-.122-.608-.381-1.042-.577-1.366-.614-1.368-.623-1.436-5.728-.053-3.972-.091-4.488-.334-4.57-.15-.051-.673-.276-1.162-.5l-.889-.407.114-.863c.137-1.026.532-1.514 1.479-1.829l.685-.228.107-1.237c.186-2.153.647-2.82 1.947-2.82.619 0 .885.087 1.156.375m-328.228.487c-.313.502-.29 4.396.028 4.881l.299.456 2.762-.066c4.118-.099 4.932-.615 4.865-3.087-.017-.602-.091-.741-.511-.958-.27-.14-.719-.498-.998-.796l-.506-.542-2.901-.055c-2.281-.043-2.93-.008-3.038.167m24.957 1.827c.575.122.925.333 1.363.82.324.361.784.731 1.023.822.287.109.547.428.768.942a5.98 5.98 0 00.82 1.332c.523.596.602.913.746 2.991.193 2.771.261 2.737-5.523 2.74-5.252.003-5.144-.021-4.975 1.1.324 2.165 4.097 3.487 4.995 1.75.952-1.84 3.8-2.699 4.861-1.465.51.593.378 1.828-.269 2.529a5.56 5.56 0 00-.732 1.039 2.15 2.15 0 01-.811.811 5.593 5.593 0 00-1.039.73c-.757.695-1.422.837-3.92.837-2.832 0-3.15-.063-3.897-.768-.33-.311-.716-.565-.858-.565-.507 0-1.837-1.543-2.047-2.375-.11-.439-.332-.854-.506-.947-1.163-.622-1.109-7.336.063-7.785.128-.05.355-.507.503-1.016.276-.95.495-1.219 2.049-2.511 1.525-1.268 4.35-1.655 7.386-1.011m37.75-.175c1.473.205 2.155.497 2.312.989.059.187.383.469.72.627.367.172.725.512.893.85a5.15 5.15 0 00.688 1c.669.718.773 1.07.959 3.249.277 3.24.521 3.104-5.564 3.107-2.492.002-4.635.069-4.763.15-.381.241-.141 1.682.341 2.049.668.509.718.557.975.938.513.761 3.302.524 3.616-.308.102-.27.455-.65.784-.844s.6-.419.6-.5c0-.574 2.588-.892 3.241-.398.732.554.585 2.897-.198 3.148-.161.051-.443.376-.627.72-.188.354-.581.75-.905.912-.315.157-.728.479-.917.716-.944 1.182-6.846 1.072-7.885-.147-.206-.241-.493-.438-.639-.438-.506 0-2.053-1.785-2.26-2.606-.105-.417-.358-.958-.562-1.201-1.006-1.2-1.005-5.527.001-6.722a2.84 2.84 0 00.524-1.165c.12-.746 1.267-2.23 2.027-2.62.247-.128.639-.455.871-.728.379-.447.58-.518 2-.71 2.058-.278 2.237-.281 3.768-.068m63.914.007c1.45.186 2.477.607 2.484 1.019.002.115.245.323.54.46.376.175.613.454.788.926.138.371.42.887.626 1.147.459.578.469.791.053 1.167-1.227 1.111-4.006.98-4.5-.212-.228-.551-.714-.689-2.437-.692-1.526-.003-1.87.698-.969 1.974.023.033.886.164 1.918.291 2.254.277 2.443.329 2.977.819.229.211.742.479 1.141.596.411.121.843.389 1 .619.151.223.529.65.839.948 1.097 1.057 1.097 4.164.001 5.334a17.99 17.99 0 00-.745.875c-.238.298-.536.542-.662.542s-.455.221-.732.491c-.937.916-6.363 1.267-7.925.513-2.481-1.198-4.076-3.952-3.22-5.56.582-1.093 2.927-1.013 3.672.125.21.319.551.659.758.753s.465.363.571.596c.302.664 3.169.973 3.707.4.689-.734.298-2.152-.593-2.152-.11 0-.544-.22-.964-.49-.596-.382-1.091-.531-2.246-.674-1.405-.175-2.291-.467-2.515-.83-.056-.091-.498-.428-.983-.749-1.125-.747-1.309-1.153-1.399-3.09-.086-1.854.138-2.91.676-3.18.203-.103.669-.519 1.036-.925.968-1.072 3.718-1.475 7.103-1.041m23.837-.013c2.375.24 2.861.392 3.368 1.057.236.31.618.61.85.668.289.073.553.365.837.925.228.45.595 1.013.816 1.251 1.125 1.214 1.118 7.921-.009 9.116-.229.243-.587.812-.797 1.264-.292.631-.57.932-1.193 1.293-.447.259-1.021.644-1.276.855-1.371 1.135-6.777 1.046-8.082-.133-.343-.31-.864-.663-1.158-.785s-.584-.374-.643-.561-.391-.647-.738-1.024c-.68-.738-.917-1.409-1.094-3.1-.063-.596-.209-1.319-.326-1.606-.173-.427-.17-.684.017-1.416a25.24 25.24 0 00.422-2.388c.172-1.328.251-1.55.713-2 .286-.279.632-.732.769-1.007s.481-.615.763-.756.732-.503 1.002-.804c.494-.554.801-.634 3.843-1 .105-.013.967.055 1.916.151m18.825.012c1.44.192 2.318.512 2.318.844 0 .104.341.503.759.886 1.007.925 1.068 1.391 1.067 8.167-.001 6.949-.079 7.25-1.886 7.25-2.293-.001-2.469-.442-2.622-6.583-.1-3.964-.164-4.793-.43-5.5-.474-1.266-.456-1.252-1.69-1.231-2.038.036-2.01.017-2.641 1.814l-.556 1.583-.001 3.684c0 2.026-.069 3.901-.153 4.166s-.198.692-.254.947c-.291 1.325-3.144 1.559-3.78.31-.24-.47-.447-13.841-.232-14.986.296-1.579 3.206-1.799 3.963-.3.244.484.248.485.44.125.579-1.081 2.864-1.553 5.698-1.176m-134.898.631c.663.497.971 1.249 1.207 2.942.126.904.31 1.501.59 1.905.515.742.688 1.277.915 2.819.1.678.222 1.298.271 1.377.072.116 1.137-1.178 1.603-1.948.057-.095.191-.805.297-1.578.206-1.505.527-2.471.921-2.769.134-.101.348-.735.475-1.407.301-1.591.571-1.825 2.101-1.825 2.68 0 3.598.901 2.315 2.271-.216.23-.418.845-.575 1.75-.31 1.781-.345 1.883-.839 2.47-.298.354-.482.893-.666 1.948-.269 1.542-.414 1.931-.923 2.492-.198.218-.413.899-.574 1.821-.25 1.434-.558 2.285-.903 2.499-.094.058-.315.389-.493.736-.448.88-1.032 1.086-2.706.957-1.946-.15-2.285-.447-2.638-2.304-.081-.427-.379-1.105-.662-1.506-.396-.562-.568-1.067-.753-2.209-.155-.953-.352-1.603-.556-1.827-.529-.583-.712-1.074-.951-2.551-.18-1.109-.318-1.498-.638-1.794-.828-.767-1.243-3.779-.609-4.413.548-.548 2.992-.455 3.791.144m15.93-.257c1.195.506 1.138.088 1.084 8.073-.047 6.956-.059 7.19-.393 7.646-1.215 1.655-3.897 1.358-4.25-.47-.268-1.385-.188-14.262.091-14.803.367-.709 2.268-.954 3.468-.446m22.528.009c.832.348 1.046.819 1.233 2.715.091.936.266 1.883.387 2.104l.498.886c.151.265.39 1.145.53 1.954.388 2.248.554 2.213.791-.168.185-1.859.534-3.255.889-3.549.281-.234.597-1.572.597-2.532 0-1.475 2.721-2.316 4.506-1.393.528.273.551.339.821 2.321.099.729.289 1.445.422 1.592.397.438.747 1.638.846 2.9.242 3.077.539 3.272.921.607a6.956 6.956 0 01.721-2.268c.432-.813.568-1.307.659-2.4.21-2.52.693-3.005 2.993-3.005 2.262 0 2.866 1.661 1.382 3.803-.31.447-.491 1.044-.666 2.197-.26 1.709-.419 2.189-.937 2.833-.231.287-.389.858-.507 1.834-.2 1.661-.364 2.206-.902 2.999-.218.321-.482 1.005-.585 1.52-.293 1.453-.677 1.72-2.473 1.715-2.211-.005-2.409-.188-2.798-2.596-.136-.839-.382-1.71-.551-1.952-.456-.65-.659-1.42-.863-3.267-.285-2.593-.572-2.394-.908.63-.064.576-.309 1.349-.606 1.915-.362.687-.543 1.336-.659 2.352-.277 2.439-.622 2.803-2.798 2.95-1.697.115-1.993-.056-2.485-1.434-.211-.591-.483-1.189-.604-1.329-.445-.513-.598-1.013-.842-2.754-.199-1.416-.333-1.879-.657-2.264-.504-.599-.532-.689-.833-2.712-.135-.903-.353-1.766-.484-1.916-.906-1.036-1.259-3.42-.609-4.112.463-.493 2.565-.596 3.571-.176m32.196.157l.457.393.094 4.982c.094 4.978.095 4.983.542 5.899.245.504.483 1.036.526 1.183.111.37 1.561.523 2.478.263 1.434-.408 1.784-1.933 1.792-7.792.006-4.205.011-4.268.381-4.604.966-.88 3.143-1.048 3.889-.302l.416.416-.048 7.682-.048 7.683-.468.402c-.773.665-2.958.451-3.397-.332-.131-.234-.282-.208-1.308.23-1.255.535-4.377.72-5.745.34-.824-.229-2.744-2.208-2.995-3.086-.214-.749-.456-11.921-.274-12.646.294-1.172 2.648-1.623 3.708-.711m136.267 1.815c.636.688 1.128.658 1.128-.069 0-.567 2.669-.864 3.5-.389.547.313 1.571.308 2.489-.012.958-.334 1.887-.178 2.57.432l.525.469.099 4.472c.112 5.054.236 5.726 1.084 5.911.923.201 1.216.142 1.76-.355.301-.275.594-.5.65-.5.364 0 .491-1.112.502-4.383.019-5.432.17-5.932 1.875-6.188 2.242-.336 2.602.391 2.8 5.654l.175 4.333c.124 2.052-.45 3.613-1.622 4.406l-.599.405-.945-.322c-1.09-.371-2.714-.434-2.822-.11-.303.909-4.207.972-4.207.067 0-.071-.256-.221-.567-.334-.814-.294-1.378-.786-1.511-1.317-.063-.254-.346-.986-.629-1.628-.501-1.137-.516-1.244-.587-4.25-.086-3.62-.196-3.981-1.083-3.586-.297.132-.965.322-1.485.422l-.945.182-.713 1.418c-.391.78-.772 1.455-.846 1.501s-.134 1.431-.134 3.078c0 3.235-.101 3.739-.89 4.467-.603.556-1.801.404-2.526-.321l-.501-.501v-6.122c0-6.772.02-6.954.797-7.292 1.091-.474 1.928-.328 2.658.462m28.871-.472c.31.13.687.422.836.65s.483.501.741.608c.69.286 1.226 1.907.935 2.825-.288.906-2.829 1.183-3.409.371-.782-1.097-.659-1.04-2.246-1.04-.816 0-1.549.066-1.63.147-.252.252.036.678.531.787.261.057.799.319 1.198.583.55.365 1.051.521 2.095.651 1.915.241 2.476.612 3.971 2.629.768 1.037.782 2.908.026 3.461-.133.097-.404.494-.602.882-.396.777-.772 1.07-1.772 1.379-.367.114-.793.317-.947.451-1.037.904-4.246.951-5.194.077-.197-.183-.646-.409-.997-.505-2.904-.786-3.469-5.141-.66-5.091 1.037.018 1.715.267 1.715.63 0 .712 1.731 1.848 2.821 1.85l1.07.002.212-.822c.238-.927.043-1.244-.77-1.257-.689-.01-1.714-.341-2.333-.753-.321-.214-1.013-.475-1.538-.581-1.868-.376-2.796-1.672-2.796-3.906 0-1.72.212-2.36.893-2.707.288-.147.732-.514.985-.817.569-.679.621-.689 3.753-.717 1.863-.017 2.698.04 3.112.213m31.257-.021c.23.116.506.471.616.789.262.764.298 11.927.04 12.61-.5 1.325-2.224 1.671-3.138.63l-.518-.589V49.474l.488-.487c.546-.546 1.717-.673 2.512-.272m17.25-.053c.4.093.814.338 1.033.613.202.252.61.575.907.717.32.152.681.529.884.922.192.371.491.691.677.725.527.095.551.169.738 2.278.236 2.646.037 5.093-.465 5.72-.196.245-.612.829-.923 1.298-.672 1.009-1.259 1.46-2.251 1.727-.403.109-.941.352-1.196.541-.965.713-3.184.707-4.156-.012-.257-.19-.828-.436-1.27-.547-.934-.235-2.265-1.439-2.463-2.227-.067-.267-.274-.592-.461-.723-1.189-.833-1.163-6.472.036-7.727.266-.278.532-.666.591-.861.135-.447.729-1.106.996-1.106.111 0 .464-.27.785-.6.818-.843 4.359-1.242 6.538-.738m-298.25 2.297c-.734.366-1.336 1.4-1.065 1.831.292.465 4.546.525 4.957.07 1.266-1.398-1.851-2.921-3.892-1.901m38.372.375c-1.592 1.53-1.34 1.833 1.53 1.833 2.321 0 3.243-.247 3.006-.803a21.43 21.43 0 01-.331-.864c-.245-.677-.55-.784-2.335-.814-1.154-.019-1.186-.008-1.87.648m88.823-.546c-.455.056-.6.178-.809.682-.139.337-.527.988-.861 1.447-.773 1.06-.933 4.012-.246 4.555.194.153.473.519.621.814 1.066 2.122 3.086 2.584 4.728 1.083.48-.439.872-.888.872-.999s.198-.774.441-1.475c.489-1.418.455-1.941-.262-3.969-.751-2.126-1.535-2.5-4.484-2.138m134.081.621c-.054.142-.513.441-1.02.665l-.922.408v2.945c0 3.463.224 4.476 1.029 4.637a1.84 1.84 0 01.795.427l.336.336.316-.34c.942-1.011.717-8.95-.262-9.277-.096-.032-.218.058-.272.199m6.737.989c-1.403.507-1.636 6.602-.252 6.602.115 0 .399.225.63.5.545.648 1.968.743 2.284.153.102-.192.441-.454.752-.585 1.409-.588 1.169-5.673-.31-6.575-.621-.378-2.186-.426-3.104-.095m26.025-.12c-.117.047-.327.36-.467.696s-.448.811-.684 1.058c-1.678 1.751 1.026 6.793 3.199 5.967.452-.172 1.918-1.585 2.334-2.249.642-1.026.409-3.495-.393-4.17-.29-.244-.527-.543-.527-.666 0-.634-2.379-1.071-3.462-.636M0 97.667v1.5h1.5c1.906 0 2.155-.463.632-1.177-.748-.351-.9-.504-1.097-1.115C.565 95.424 0 95.857 0 97.667m398.824-.632c-.351.748-.505.899-1.116 1.097-1.45.469-1.018 1.035.792 1.035h1.5v-1.5c0-1.906-.463-2.155-1.176-.632" fill="#fbfbfb"/><path d="M3 .403c0 .327-.134.446-.708.632-.611.197-.765.349-1.116 1.097C.859 2.81.685 3 .385 3H0v93.167h.403c.327 0 .446.133.632.708.197.611.349.764 1.097 1.115.678.318.868.491.868.792v.385h394v-.403c0-.327.134-.446.708-.632.611-.198.765-.349 1.116-1.097.317-.678.491-.868.791-.868H400V3h-.403c-.327 0-.446-.134-.632-.708-.197-.611-.349-.765-1.097-1.116C397.19.859 397 .685 397 .385V0H3v.403m.327 1.589c.202.128.17.222-.188.554-.237.22-.531.676-.653 1.013-.302.836-.559.677-.62-.386-.076-1.299.516-1.778 1.461-1.181m394.742.634c-.019.918-.145 1.02-.624.504a3.01 3.01 0 00-1.001-.643c-1.05-.38-.722-.653.723-.603l.916.033-.014.709m-1.532.837l.38.38v91.481l-.38.38-.38.379H3.843l-.38-.379-.38-.38V49.596c0-50.67-.092-46.271.976-46.481.197-.038 88.499-.061 196.228-.051l195.87.019.38.38M240.274 32.335c-.255.303-.463.811-.529 1.291-.178 1.295-.423 2.104-.744 2.457-.335.37-.535 1.026-.906 2.98-.137.722-.374 1.452-.528 1.621s-.48.929-.727 1.687l-.448 1.379-5.571.083c-3.064.046-5.657.14-5.763.208-.801.521-.418 1.735.694 2.199.305.128.638.388.74.579s.477.495.832.676.897.565 1.203.853.866.664 1.245.836.816.508.971.746.521.532.812.655.734.436.985.695.637.642.858.853c.449.428.286 1.87-.283 2.498-.378.419-.571 1.013-.855 2.639-.169.974-.392 1.653-.676 2.062-.685.989-1.178 4.174-.717 4.635.475.475 1.629.168 2.583-.687.348-.312.877-.692 1.175-.845a4.65 4.65 0 001.068-.856c.29-.318.638-.579.772-.579s.486-.255.779-.566a5.26 5.26 0 011.187-.899c.359-.183.802-.499.985-.701.917-1.014 3.251-1.008 3.251.008 0 .084.356.335.791.558s.881.553.991.735.601.56 1.094.842 1.041.675 1.218.875.595.485.929.636a3.55 3.55 0 011.046.798c.242.288.664.572.939.633a2.74 2.74 0 01.973.508c.935.787 1.596-1.11.797-2.287-.228-.335-.503-1.048-.611-1.583-.456-2.257-.553-2.588-.917-3.124-.443-.653-.54-1.055-.665-2.766-.051-.688-.134-1.459-.186-1.714-.152-.745.417-1.92 1.028-2.122.28-.093.952-.543 1.492-1s1.077-.831 1.191-.831.418-.263.674-.584.708-.664 1.005-.762a2.13 2.13 0 00.861-.588c.177-.225.718-.621 1.202-.879 1.2-.642 1.397-.963.994-1.626-.427-.702-.647-.728-6.15-.728h-4.762l-.675-.458c-.99-.67-.937-.558-1.266-2.659-.126-.809-.342-1.434-.662-1.916-.341-.516-.55-1.156-.746-2.286-.274-1.584-.331-1.728-1.299-3.303-.815-1.324-1.153-1.501-1.679-.876m1.981 3.832c.121.229.346 1.111.5 1.961.177.973.425 1.757.67 2.118.214.316.522 1.191.684 1.946.526 2.447.555 2.457 7.027 2.467 5.419.009 6.043.158 4.406 1.055-.436.238-.886.587-1 .774s-.459.445-.764.573-.703.419-.883.648-.646.579-1.035.777-.986.611-1.326.915-.86.678-1.157.83-.695.556-.884.897a27.83 27.83 0 01-.622 1.071c-.269.433-.264.466.116.87.331.353.416.676.528 2.002.192 2.267.298 2.722.907 3.88 1.055 2.006.906 5.254-.166 3.618-.155-.236-.532-.535-.837-.662s-.696-.411-.868-.63-.545-.518-.827-.664-.913-.606-1.401-1.023-.987-.757-1.11-.757-.479-.254-.79-.565c-.358-.359-.962-.698-1.648-.926l-1.082-.36-1.007.508c-.554.28-1.08.644-1.168.811s-.503.477-.92.691-.799.521-.85.681-.326.388-.612.506-.865.514-1.286.879-1.09.807-1.485.982-.765.443-.823.597c-.147.392-.568.676-.845.57-.347-.134-.108-1.596.384-2.347.387-.59.501-.976.923-3.11.109-.55.3-1.115.424-1.256.569-.645 1.215-3.402.999-4.261-.148-.589-1.393-1.897-2.117-2.223-.333-.15-.808-.514-1.056-.808s-.554-.535-.68-.535-.487-.258-.802-.573-.986-.806-1.491-1.091-.961-.631-1.014-.769-.435-.401-.848-.584c-1.78-.787-.778-.983 5.019-.983 5.559 0 5.375.039 6.038-1.299l.763-1.5c.161-.301.404-1.201.541-2 .158-.923.42-1.755.721-2.285.28-.493.582-1.412.739-2.25.448-2.383.281-2.452 2.015.834M32.582 41.403l-.425.425.047 10.684.046 10.684.491.422c.883.76 3.563.331 4.129-.661.148-.261.229-1.433.268-3.874.047-2.891.102-3.55.318-3.791.289-.322 2.53-.402 5.119-.183l1.292.109.328.766c.18.421.486.935.679 1.141.291.311.377.699.498 2.25.272 3.473.302 3.647.696 4.041.682.682 3.331.74 4.133.09.532-.431.284-3.961-.416-5.923-.131-.366-.293-1.116-.359-1.666-.146-1.208-.561-2.193-1.153-2.738-.579-.532-.555-.745.133-1.151.467-.275.635-.534.906-1.391.182-.58.487-1.351.677-1.714.484-.928.464-2.282-.049-3.258a12.804 12.804 0 01-.687-1.642c-.219-.67-.42-.963-.8-1.167-.28-.15-.783-.513-1.118-.807-1.091-.957-1.063-.953-7.957-1.014l-6.372-.056-.424.424m52.145-.218c-.997.512-.952 3.249.063 3.792 2.411 1.29 5.546-1.814 3.449-3.413-.666-.508-2.81-.74-3.512-.379m-39.955.63c.683.132 1.609.637 2.947 1.607 1.93 1.399 1.877 6.387-.088 8.232l-.855.803.436.743c.239.409.557.844.706.968.735.61.871 1.359 1.356 7.516l.099 1.267-.651.104c-2.031.325-2.717-.646-2.726-3.855-.011-3.97-1.358-5.033-6.376-5.033-3.486 0-3.62.156-3.62 4.214 0 4.182-.318 4.902-2.098 4.756-1.181-.097-1.146.223-1.2-10.95-.044-9.105-.025-9.922.234-10.209.305-.337 10.232-.474 11.836-.163m42.524.111c.548.384.521 1.541-.048 2.076-1.342 1.261-3.536-.671-2.306-2.031.355-.391 1.82-.419 2.354-.045m175.099 1.917c-.779.234-1.449 1.193-1.306 1.87.327 1.544.989 1.954 3.161 1.954.862 0 1.759.087 1.992.193l.425.194.003 6.848c.005 7.697-.085 7.148 1.313 8.013.815.504 1.642.492 2.539-.038.936-.553.978-.904.978-8.18 0-7.722-.204-7.03 2.075-7.031 2.706-.002 3.377-.335 3.597-1.788.146-.96-.061-1.473-.746-1.849-.588-.322-13.028-.487-14.031-.186m74.254.002c-1.068.41-1.113 3.313-.058 3.718 1.92.737 3.671-.993 2.939-2.903-.299-.783-1.834-1.217-2.881-.815m5.627.069c-.353.123-.821.394-1.042.601l-.401.376v16.833l.75.718c.981.941 1.337 1.014 2.447.506 1.365-.624 1.303-.164 1.303-9.76v-8.463l-.375-.35c-.343-.321-.562-.402-1.666-.614-.207-.039-.664.029-1.016.153m-305.394.68c-.795.348-.883.664-.869 3.103.021 3.795.202 3.971 4.07 3.965 4.5-.006 5.917-.952 5.917-3.947V46.48l-.856-.905c-.543-.574-1.077-.966-1.458-1.073-.942-.261-6.158-.19-6.804.092m277.201.051c-1.103.686-1.583 1.531-1.583 2.79 0 .667-.056.778-.526 1.031-.991.535-1.141.781-1.141 1.878 0 1.222.176 1.595.821 1.736.898.198.927.328.96 4.296.031 3.632.035 3.663.459 4.275.235.34.427.727.427.863 0 .448.493.958 1.126 1.163.343.111.812.331 1.041.489.983.674 2.138.573 2.972-.261 1.083-1.083 1.497-.47 1.524 2.262.021 2.059.798 3.086 2.329 3.078 1.751-.01 2.172-.644 2.174-3.276.001-2.323.288-2.7 1.388-1.826.99.787 3.166.817 4 .056.17-.155.658-.395 1.084-.532.54-.175.876-.413 1.11-.787.184-.295.467-.581.629-.636.375-.129.688-.753.96-1.911.119-.504.367-1.122.553-1.373.693-.939.662-3.092-.057-4.006-.181-.23-.414-.82-.518-1.311-.316-1.495-.485-1.714-2.615-3.398-.911-.72-1.413-.807-3.822-.667-2.246.13-3.755.149-4.989.065-.713-.049-.93.005-1.26.314-.524.492-1.866.7-2.015.312-.057-.147-.509-.448-1.006-.667l-.902-.399-.064-1.144c-.114-2.01-1.697-3.259-3.059-2.414m49.244.028c-.491.491-.682 1.081-.803 2.48l-.107 1.237-.685.228c-.947.315-1.342.803-1.479 1.829l-.114.863.889.407c.489.224 1.012.449 1.162.5.243.082.281.598.334 4.57.068 5.105.07 5.114 1.436 5.728.434.196.904.455 1.042.577.419.367 1.579.552 2.386.38 1.853-.395 2.487-2.67.924-3.312-1.892-.778-1.941-.894-1.962-4.681-.019-3.304-.053-3.209 1.233-3.371 1.126-.142 1.584-.656 1.584-1.775s-.458-1.632-1.584-1.774c-1.151-.145-1.25-.262-1.25-1.485 0-2.321-1.716-3.691-3.006-2.401m-87.527.163l.549.335-.299.51c-.657 1.118-.737 1.152-2.653 1.152-1.719 0-1.766.011-2.243.488l-.487.487v6.825c0 7.534.08 7.01-1.137 7.44-.667.235-.708.229-1.194-.18l-.503-.423v-6.662c0-8.219.109-7.963-3.371-7.971-1.496-.003-1.64-.033-1.864-.379-.434-.672-.499-1.273-.175-1.631.465-.514 12.533-.505 13.377.009m62.932-.023c.47.52.074 1.784-.601 1.919-.507.102-1.296.138-1.299.06a19.7 19.7 0 00-.237-.816c-.402-1.323 1.202-2.196 2.137-1.163m5.034-.044l.567.269v16.439l-.458.318c-.774.536-.974.544-1.439.058l-.436-.455V45.019l.37-.26c.467-.327.691-.325 1.396.01m-299.922.856c.279.298.728.656.998.796.42.217.494.356.511.958.067 2.472-.747 2.988-4.865 3.087l-2.762.066-.299-.456c-.318-.485-.341-4.379-.028-4.881.108-.175.757-.21 3.038-.167l2.901.055.506.542m321.658.417c.226.37.33.838.331 1.481 0 1.166.35 1.655 1.359 1.899.714.173.725.187.775.944l.05.769-.702.118c-.397.067-.877.294-1.105.522l-.404.404.055 3.81c.064 4.372.045 4.315 1.558 4.755 1.796.522 1.032 1.589-1.137 1.589-2.602 0-3.009-.787-3.115-6.028-.091-4.473-.153-4.733-1.214-5.07-.581-.184-.274-1.435.544-2.213.614-.584.67-.709.67-1.504 0-1.241.339-1.815 1.124-1.897a13.95 13.95 0 00.753-.093c.07-.015.276.216.458.514m-49.95.092c.351.366.448.631.448 1.219 0 .864.473 1.444 1.542 1.89.605.253.625.288.625 1.101s-.02.848-.625 1.097a4.215 4.215 0 00-1.084.689l-.458.432v2.881c0 3.337.299 4.448 1.348 5.019a7.04 7.04 0 01.938.624l.407.336-.377.478c-.375.477-.381.478-1.799.378-2.524-.178-2.676-.519-2.68-6.033-.004-4.184.005-4.152-1.33-4.726l-.84-.362v-.815c0-.785.022-.824.583-1.009 1.027-.339 1.583-1.056 1.583-2.043 0-1.463.867-2.046 1.719-1.156M58 46.845c-1.658.203-2.013.342-3.03 1.188-1.554 1.292-1.773 1.561-2.049 2.511-.148.509-.375.966-.503 1.016-1.172.449-1.226 7.163-.063 7.785.174.093.396.508.506.947.21.832 1.54 2.375 2.047 2.375.142 0 .528.254.858.565 1.252 1.182 6.506 1.135 7.817-.069a5.593 5.593 0 011.039-.73 2.15 2.15 0 00.811-.811 5.56 5.56 0 01.732-1.039c.647-.701.779-1.936.269-2.529-1.061-1.234-3.909-.375-4.861 1.465-.898 1.737-4.671.415-4.995-1.75-.169-1.121-.277-1.097 4.975-1.1 5.784-.003 5.716.031 5.523-2.74-.144-2.078-.223-2.395-.746-2.991a5.98 5.98 0 01-.82-1.332c-.221-.514-.481-.833-.768-.942-.239-.091-.699-.461-1.023-.822-.842-.937-3.051-1.322-5.719-.997m38.338.07c-1.42.192-1.621.263-2 .71-.232.273-.624.6-.871.728-.76.39-1.907 1.874-2.027 2.62a2.84 2.84 0 01-.524 1.165c-1.006 1.195-1.007 5.522-.001 6.722.204.243.457.784.562 1.201.207.821 1.754 2.606 2.26 2.606.146 0 .433.197.639.438 1.039 1.219 6.941 1.329 7.885.147.189-.237.602-.559.917-.716.324-.162.717-.558.905-.912.184-.344.466-.669.627-.72.783-.251.93-2.594.198-3.148-.653-.494-3.241-.176-3.241.398 0 .081-.27.306-.6.5s-.682.574-.784.844c-.314.832-3.103 1.069-3.616.308-.257-.381-.307-.429-.975-.938-.482-.367-.722-1.808-.341-2.049.128-.081 2.271-.148 4.763-.15 6.085-.003 5.841.133 5.564-3.107-.186-2.179-.29-2.531-.959-3.249a5.15 5.15 0 01-.688-1c-.168-.338-.526-.678-.893-.85-.337-.158-.661-.44-.72-.627-.304-.955-2.906-1.349-6.08-.921m62.745.013c-1.453.222-1.521.252-2.166.967-.367.406-.833.822-1.036.925-.538.27-.762 1.326-.676 3.18.09 1.937.274 2.343 1.399 3.09.485.321.927.658.983.749.224.363 1.11.655 2.515.83 1.155.143 1.65.292 2.246.674.42.27.854.49.964.49.891 0 1.282 1.418.593 2.152-.538.573-3.405.264-3.707-.4-.106-.233-.363-.501-.571-.596s-.548-.434-.758-.753c-.422-.646-.935-.903-1.802-.903-3.389 0-2.428 4.513 1.35 6.338 1.562.754 6.988.403 7.925-.513.277-.27.606-.491.732-.491s.424-.244.662-.542a17.99 17.99 0 01.745-.875c1.096-1.17 1.096-4.277-.001-5.334-.31-.298-.688-.725-.839-.948-.157-.23-.589-.498-1-.619-.399-.117-.912-.385-1.141-.596-.534-.49-.723-.542-2.977-.819-1.032-.127-1.895-.258-1.918-.291-.901-1.276-.557-1.977.969-1.974 1.723.003 2.209.141 2.437.692.494 1.192 3.273 1.323 4.5.212.416-.376.406-.589-.053-1.167-.206-.26-.488-.776-.626-1.147-.175-.472-.412-.751-.788-.926-.295-.137-.538-.345-.54-.46-.017-.956-4.014-1.465-7.421-.945m25.086-.001c-1.455.197-1.621.258-2.071.763-.27.301-.721.663-1.002.804s-.625.481-.763.756-.483.728-.769 1.007c-.462.45-.541.672-.713 2a25.24 25.24 0 01-.422 2.388c-.187.732-.19.989-.017 1.416.117.287.263 1.01.326 1.606.177 1.691.414 2.362 1.094 3.1.347.377.679.837.738 1.024s.348.44.643.561.815.475 1.158.785c1.305 1.179 6.711 1.268 8.082.133.255-.211.829-.596 1.276-.855.623-.361.901-.662 1.193-1.293.21-.452.568-1.021.797-1.264 1.127-1.195 1.134-7.902.009-9.116-.221-.238-.588-.801-.816-1.251-.284-.56-.548-.852-.837-.925-.232-.058-.614-.358-.85-.668-.264-.346-.662-.624-1.035-.722-.593-.157-3.871-.532-4.249-.486-.105.012-.903.119-1.772.237m18.985-.033c-1.188.213-1.865.567-2.17 1.135-.192.36-.196.359-.44-.125-.757-1.499-3.667-1.279-3.963.3-.215 1.145-.008 14.516.232 14.986.636 1.249 3.489 1.015 3.78-.31.056-.255.17-.681.254-.947s.153-2.14.153-4.166l.001-3.684.556-1.583c.631-1.797.603-1.778 2.641-1.814 1.234-.021 1.216-.035 1.69 1.231.266.707.33 1.536.43 5.5.153 6.141.329 6.582 2.622 6.583 1.807 0 1.885-.301 1.886-7.25.001-6.776-.06-7.242-1.067-8.167-.418-.383-.759-.782-.759-.886 0-.736-3.515-1.219-5.846-.803m-135.161.446c-.634.634-.219 3.646.609 4.413.32.296.458.685.638 1.794.239 1.477.422 1.968.951 2.551.204.224.401.874.556 1.827.185 1.142.357 1.647.753 2.209.283.401.581 1.079.662 1.506.353 1.857.692 2.154 2.638 2.304 1.674.129 2.258-.077 2.706-.957.178-.347.399-.678.493-.736.345-.214.653-1.065.903-2.499.161-.922.376-1.603.574-1.821.509-.561.654-.95.923-2.492.184-1.055.368-1.594.666-1.948.494-.587.529-.689.839-2.47.157-.905.359-1.52.575-1.75 1.283-1.37.365-2.271-2.315-2.271-1.53 0-1.8.234-2.101 1.825-.127.672-.341 1.306-.475 1.407-.394.298-.715 1.264-.921 2.769-.106.773-.24 1.483-.297 1.578-.466.77-1.531 2.064-1.603 1.948-.049-.079-.171-.699-.271-1.377-.227-1.542-.4-2.077-.915-2.819-.28-.404-.464-1.001-.59-1.905-.378-2.718-.933-3.31-3.183-3.4-1.312-.053-1.476-.024-1.815.314m16.712-.228c-.659.265-.705.787-.698 7.838.01 8.816.024 8.883 1.945 9.006 1.111.072 1.897-.252 2.453-1.01.505-.688.637-14.602.143-15.157-.589-.662-2.879-1.065-3.843-.677m21.966.3c-.65.692-.297 3.076.609 4.112.131.15.349 1.013.484 1.916.301 2.023.329 2.113.833 2.712.324.385.458.848.657 2.264.244 1.741.397 2.241.842 2.754.121.14.393.738.604 1.329.492 1.378.788 1.549 2.485 1.434 2.176-.147 2.521-.511 2.798-2.95.116-1.016.297-1.665.659-2.352.297-.566.542-1.339.606-1.915.336-3.024.623-3.223.908-.63.204 1.847.407 2.617.863 3.267.169.242.415 1.113.551 1.952.389 2.408.587 2.591 2.798 2.596 1.796.005 2.18-.262 2.473-1.715.103-.515.367-1.199.585-1.52.538-.793.702-1.338.902-2.999.118-.976.276-1.547.507-1.834.518-.644.677-1.124.937-2.833.175-1.153.356-1.75.666-2.197 1.484-2.142.88-3.803-1.382-3.803-2.3 0-2.783.485-2.993 3.005-.091 1.093-.227 1.587-.659 2.4a6.956 6.956 0 00-.721 2.268c-.382 2.665-.679 2.47-.921-.607-.099-1.262-.449-2.462-.846-2.9-.133-.147-.323-.863-.422-1.592-.27-1.982-.293-2.048-.821-2.321-1.785-.923-4.506-.082-4.506 1.393 0 .96-.316 2.298-.597 2.532-.355.294-.704 1.69-.889 3.549-.237 2.381-.403 2.416-.791.168-.14-.809-.379-1.689-.53-1.954l-.498-.886c-.121-.221-.296-1.168-.387-2.104-.249-2.532-.69-2.951-3.107-2.951-1.178 0-1.349.042-1.697.412m32.5-.083c-.531.531-.558.937-.455 6.987.115 6.809.097 6.712 1.589 8.229 1.334 1.357 1.621 1.454 4.278 1.45 1.842-.004 2.092-.043 3.161-.499 1.026-.438 1.177-.464 1.308-.23.439.783 2.624.997 3.397.332l.468-.402.048-7.683.048-7.682-.416-.416c-.746-.746-2.923-.578-3.889.302-.37.336-.375.399-.381 4.604-.008 5.859-.358 7.384-1.792 7.792-.917.26-2.367.107-2.478-.263-.043-.147-.281-.679-.526-1.183-.447-.916-.448-.921-.542-5.899l-.094-4.982-.457-.393c-.628-.54-2.749-.582-3.267-.064m-77.218.354c.204.076.788.478 1.298.894s1.005.756 1.098.756.43.544.747 1.209.724 1.437.904 1.717c.488.761.658 3.235.246 3.578-.241.2-1.199.262-5.146.33-4.734.081-5.767.213-5.767.737 0 .018.183.499.407 1.07.962 2.456 1.682 2.939 4.211 2.828l1.6-.07.683-.76c.375-.418 1.04-.954 1.477-1.189l.794-.429.398.365c2.523 2.315-5.189 6.27-8.072 4.139a9.736 9.736 0 00-1.086-.656c-1.067-.551-1.994-1.649-2.492-2.952l-.641-1.667c-.394-1.007-.245-3.702.277-5l.661-1.665c.236-.618 1.172-1.67 1.949-2.19a17.34 17.34 0 001.019-.742c.715-.575 4.192-.769 5.435-.303m38.714.011c.32.098.808.383 1.083.633a11.91 11.91 0 001.038.822 3.21 3.21 0 01.876 1.068 15.95 15.95 0 00.827 1.45c.415.636.506.98.602 2.267.174 2.344.437 2.233-5.282 2.233-5.621 0-5.671.016-5.313 1.741.418 2.014 1.815 2.992 4.141 2.901l1.488-.059.84-.75c1.76-1.57 2.469-1.87 3.129-1.323.39.324.371 1.296-.032 1.675a2.862 2.862 0 00-.572.835c-.129.311-.481.63-.972.88l-1.658.858c-1.507.787-4.614.594-5.745-.358-.262-.22-.646-.443-.853-.495-1.267-.318-2.366-2.444-2.925-5.655-.276-1.585.713-6.084 1.337-6.084.076 0 .274-.23.44-.511s.657-.73 1.092-.998.792-.561.792-.65c0-.686 3.918-1.018 5.667-.48m64.016-.028c.33.093.743.329.917.523s.595.531.935.747a1.63 1.63 0 01.801 1.072c.1.374.222.782.27.908.383.998-2.497.987-3.114-.013-.804-1.3-3.757-1.464-5.29-.294l-.55.419.441.778c.655 1.153 1.132 1.48 2.481 1.701.647.106 1.513.342 1.926.524s1.237.477 1.833.657c1.443.436 1.807.633 1.938 1.044.06.189.325.546.588.792 1.409 1.316.42 4.612-1.733 5.774l-1.245.676c-2.508 1.376-7.335.006-8.884-2.522-1.065-1.739 1.151-3.252 2.311-1.577 2.031 2.934 7.082 2.704 7.185-.327.03-.867-2.478-2.142-4.977-2.531-5.071-.788-6.334-5.905-2.02-8.184.912-.482 4.703-.584 6.187-.167m24.094-.069c1.058.159 3.262 1.826 3.689 2.79a10.98 10.98 0 00.8 1.467c.825 1.195.872 5.953.068 6.979-.179.23-.561.844-.848 1.366-1.211 2.2-4.543 3.605-7.349 3.098-1.409-.255-3.78-1.645-4.284-2.512a23.082 23.082 0 00-.896-1.403c-1.1-1.561-.912-7.258.283-8.549.213-.229.507-.679.656-1 .178-.385.524-.718 1.02-.981.413-.219.751-.467.751-.55 0-.668 3.602-1.083 6.11-.705m18.644.124c.78.27 2.305 2.051 2.57 3 .295 1.056.174 11.797-.136 12.17-.156.187-.489.276-1.038.276-1.351 0-1.384-.134-1.484-6.014l-.083-4.93-.5-.804c-1.273-2.047-4.423-2.188-5.611-.252-1.112 1.812-1.033 1.363-1.131 6.424-.109 5.575-.123 5.626-1.554 5.542-1.265-.073-1.259-.033-1.275-8.249l-.012-6.865.37-.26c.916-.641 1.918-.287 2.686.949.38.612.651.579 1.489-.178 1.29-1.166 3.694-1.507 5.709-.809m-136.845-.027c.687.313 1.546 2.049 1.911 3.864.175.872.506 1.909.734 2.305s.543 1.353.698 2.126c.515 2.567.769 2.843 1.636 1.785.984-1.202 1.256-1.797 1.6-3.508.181-.9.514-1.989.739-2.42s.54-1.441.7-2.244c.331-1.668.55-1.913 1.753-1.958.902-.034 1.537.26 1.417.658-.046.155-.234.975-.417 1.822s-.519 1.86-.748 2.251-.571 1.375-.761 2.188-.495 1.689-.678 1.946-.506 1.167-.718 2.021a12.813 12.813 0 01-1.209 3.053l-.825 1.5-.734.053c-1.692.122-2.562-.564-3.015-2.376-.175-.699-.505-1.589-.733-1.979s-.53-1.252-.669-1.916-.478-1.636-.751-2.161-.62-1.517-.772-2.204-.483-1.625-.737-2.083c-1.208-2.178-.375-3.614 1.579-2.723m16.985.82c.593 2.964.001 14.286-.762 14.572-.755.283-1.702-.171-1.922-.923-.315-1.073-.23-13.821.094-14.212.591-.711 2.415-.315 2.59.563m21.831-.742c.808.385 1.209 1.31 1.614 3.722.189 1.129.48 2.323.645 2.654s.468 1.165.672 1.852c.812 2.74 1.416 2.639 1.927-.321.149-.864.456-2.011.683-2.55s.522-1.707.656-2.596c.418-2.762.481-2.849 2.092-2.89 1.731-.044 1.855.107 2.236 2.691.154 1.054.458 2.337.675 2.852s.518 1.615.669 2.445.426 1.754.608 2.054l.332.545.308-.406c.169-.224.437-.895.595-1.491a24.76 24.76 0 01.747-2.25c.253-.641.579-1.916.725-2.833.457-2.884 1.249-3.864 2.875-3.56 1.064.198 1.086.249.599 1.393-.234.55-.568 1.713-.743 2.584s-.508 1.956-.74 2.411-.568 1.557-.747 2.449-.549 2.093-.822 2.671-.498 1.17-.498 1.313c-.001 2.012-1.407 3.081-3.079 2.342-.914-.405-1.052-.671-1.339-2.584-.128-.854-.353-1.882-.5-2.285-.608-1.667-.736-2.123-.921-3.286-.131-.817-.318-1.362-.571-1.656l-.375-.437-.286.436c-.157.24-.461 1.143-.675 2.009s-.509 1.804-.656 2.088-.381 1.249-.522 2.147c-.5 3.185-.951 3.798-2.79 3.798-1.123 0-1.143-.02-1.645-1.666-.196-.642-.524-1.505-.731-1.918s-.501-1.426-.655-2.25-.494-1.987-.754-2.582-.594-1.716-.74-2.489-.444-1.786-.661-2.25c-.821-1.754-.731-2.18.485-2.304.366-.037.681-.081.701-.096s.293.094.606.244m32.392-.021c.351.245.359.35.412 5.458.06 5.8.031 5.639 1.28 6.952l.639.672 1.318-.009c2.201-.016 2.566-.274 3.765-2.657.149-.297.226-1.795.267-5.206l.058-4.788.421-.331c.443-.349 1.72-.329 2.181.035.274.215.303 13.803.031 14.581-.345.991-1.552.978-2.494-.027l-.69-.736-.855.396c-.471.218-.983.506-1.14.64-2.343 2.006-7.084-.227-7.497-3.532-.306-2.448-.165-11.014.187-11.366.406-.406 1.588-.453 2.117-.082m134.263.995c-.777.338-.797.52-.797 7.292v6.122l.501.501c.725.725 1.923.877 2.526.321.789-.728.89-1.232.89-4.467 0-1.647.06-3.033.134-3.078s.455-.721.846-1.501l.713-1.418.945-.182c.52-.1 1.188-.29 1.485-.422.887-.395.997-.034 1.083 3.586.071 3.006.086 3.113.587 4.25.283.642.566 1.374.629 1.628.133.531.697 1.023 1.511 1.317.311.113.567.263.567.334 0 .905 3.904.842 4.207-.067.108-.324 1.732-.261 2.822.11l.945.322.599-.405c1.172-.793 1.746-2.354 1.622-4.406-.016-.275-.095-2.225-.175-4.333-.198-5.263-.558-5.99-2.8-5.654-1.705.256-1.856.756-1.875 6.188-.011 3.271-.138 4.383-.502 4.383-.056 0-.349.225-.65.5-.544.497-.837.556-1.76.355-.848-.185-.972-.857-1.084-5.911l-.099-4.472-.525-.469c-.683-.61-1.612-.766-2.57-.432-.918.32-1.942.325-2.489.012-.831-.475-3.5-.178-3.5.389 0 .727-.492.757-1.128.069-.73-.79-1.567-.936-2.658-.462m25.498-.129c-.205.04-.58.32-.834.623s-.697.67-.985.817c-.681.347-.893.987-.893 2.707 0 2.234.928 3.53 2.796 3.906.525.106 1.217.367 1.538.581.619.412 1.644.743 2.333.753.813.013 1.008.33.77 1.257l-.212.822-1.07-.002c-1.09-.002-2.821-1.138-2.821-1.85 0-.363-.678-.612-1.715-.63-2.809-.05-2.244 4.305.66 5.091.351.096.8.322.997.505.948.874 4.157.827 5.194-.077.154-.134.58-.337.947-.451 1-.309 1.376-.602 1.772-1.379.198-.388.469-.785.602-.882.756-.553.742-2.424-.026-3.461-1.495-2.017-2.056-2.388-3.971-2.629-1.044-.13-1.545-.286-2.095-.651-.399-.264-.937-.526-1.198-.583-.495-.109-.783-.535-.531-.787.081-.081.814-.147 1.63-.147 1.587 0 1.464-.057 2.246 1.04.58.812 3.121.535 3.409-.371.291-.918-.245-2.539-.935-2.825a1.922 1.922 0 01-.741-.608c-.516-.787-4.477-1.23-6.867-.769m34.776.37l-.488.487V62.155l.518.589c.914 1.041 2.638.695 3.138-.63.258-.683.222-11.846-.04-12.61-.383-1.113-2.228-1.418-3.128-.517m14.368-.32c-.308.072-.823.402-1.144.733s-.674.6-.785.6c-.267 0-.861.659-.996 1.106-.059.195-.325.583-.591.861-1.199 1.255-1.225 6.894-.036 7.727.187.131.394.456.461.723.198.788 1.529 1.992 2.463 2.227.442.111 1.013.357 1.27.547.972.719 3.191.725 4.156.012.255-.189.793-.432 1.196-.541.992-.267 1.579-.718 2.251-1.727.311-.469.727-1.053.923-1.298.502-.627.701-3.074.465-5.72-.187-2.109-.211-2.183-.738-2.278-.186-.034-.485-.354-.677-.725-.203-.393-.564-.77-.884-.922a3.096 3.096 0 01-.907-.717c-.569-.713-4.435-1.079-6.427-.608m-68.05.625c.875.744.339 2.373-.782 2.376-.948.002-1.682.332-1.959.881a5.036 5.036 0 01-.68.974c-.601.642-.71 1.379-.714 4.83-.005 3.78-.105 4.042-1.458 3.792-1.249-.231-1.214-.058-1.2-5.969.015-6.255.059-6.514 1.138-6.727.717-.142.736-.133 1.428.62.849.925.76.92 1.672.079.614-.565 1.613-1.107 2.106-1.141.058-.004.261.124.449.285m23.618-.033c.546.142 1.18.433 1.41.647s.659.512.956.661c.582.294.766.731.681 1.618-.087.906-1.632.95-2.379.068-1.411-1.665-5.439-1.127-4.769.637.391 1.027 1.528 1.637 3.735 2.005 1.646.274 1.825.357 3.147 1.456 1.117.929 1.243 2.657.323 4.437-.724 1.4-3.994 2.247-6.368 1.649l-1.372-.337c-1.198-.281-2.357-1.851-2.042-2.767.346-1.005 1.661-.805 2.652.404 1.43 1.746 4.53 1.449 5.076-.486l.234-.826-.593-.504c-.808-.688-2.519-1.382-4.164-1.691-2.53-.474-3.726-2.09-3.243-4.381.155-.731.284-.952.683-1.167.27-.146.725-.458 1.009-.693 1.139-.943 3.108-1.229 5.024-.73m22.908.001c.32.064.814.295 1.099.512s.605.395.713.395c.249 0 1.651 1.45 1.933 2 .593 1.155.757 4.373.328 6.449-.641 3.104-3.967 4.767-7.124 3.563-1.734-.661-2.447.011-2.447 2.306v1.668l-.657.69c-1.514 1.591-1.677.763-1.673-8.461.004-9.248.13-9.896 1.67-8.601.679.572 2.826.483 2.826-.117 0-.272 1.834-.688 2.5-.568a57.62 57.62 0 01.832.164m26.418.263c2.472 1.174 2.512 1.215 3.752 3.762.726 1.492.59 4.68-.247 5.777-.232.304-.421.631-.421.727 0 .243-1.461 1.845-1.895 2.078-.635.342-3.414.769-4.076.627l-1.6-.331c-1.114-.224-2.539-1.376-2.945-2.38a8.616 8.616 0 00-.641-1.187c-.742-1.139-.641-4.101.195-5.699.341-.653.691-1.373.778-1.601s.444-.563.795-.745a42.71 42.71 0 001.429-.788c1.368-.791 3.496-.895 4.876-.24m-68.673-.086c.722.277.886 1.13.96 4.982l.071 3.664.528 1.119c.632 1.337.92 1.517 2.446 1.525 1.519.008 1.839-.19 2.475-1.533l.526-1.111.057-3.583c.061-3.854.297-4.814 1.246-5.062 1.096-.286 1.281.707 1.281 6.864v5.096l-.439.459-.439.458-.824-.313c-.893-.34-1.637-.291-3.474.225-2.16.607-4.402.049-5.038-1.253-.98-2.003-.893-10.848.112-11.513.227-.15.187-.148.512-.024m51.221-.003c.785.158.869.813.869 6.788 0 5.943.023 5.838-1.292 5.995-1.356.162-1.375.079-1.371-5.864.006-6.888.102-7.257 1.794-6.919m-280.325.704c-1.904.683-2.633 2.814-1.286 3.757.314.22.84.272 2.784.272 2.717 0 3.417-.195 3.777-1.051.221-.526.266-.411-.836-2.162-.626-.994-2.819-1.397-4.439-.816m39.277-.149c-2.168.528-3.245 2.725-1.923 3.921.359.326 6 .331 6.323.007.642-.645.692-1.375.139-2.062-.296-.369-.672-.86-.834-1.091-.505-.718-2.352-1.104-3.705-.775m87.834.101c-.459.125-.946.383-1.084.574s-.524.692-.86 1.113c-1.218 1.527-1.206 5.788.02 7.14a11.78 11.78 0 01.821 1.035c.964 1.408 4.629 1.183 5.663-.348 1.39-2.054 1.549-2.49 1.546-4.224-.009-4.047-2.558-6.255-6.106-5.29m-124.022.755c.883.223 1.374 1.415.83 2.015-.411.455-4.665.395-4.957-.07-.805-1.28 1.832-2.523 4.127-1.945m38.829-.034c.348.078.531.261.686.689a21.43 21.43 0 00.331.864c.237.556-.685.803-3.006.803-2.87 0-3.122-.303-1.53-1.833.725-.696 1.93-.875 3.519-.523m88.352.092c.672.281.968.697 1.436 2.023.717 2.028.751 2.551.262 3.969-.243.701-.441 1.365-.441 1.475s-.392.56-.872.999c-1.642 1.501-3.662 1.039-4.728-1.083-.148-.295-.427-.661-.621-.814-.687-.543-.527-3.495.246-4.555.334-.459.722-1.11.861-1.447.209-.504.354-.626.809-.682 1.259-.154 2.517-.107 3.048.115m131.784.937c.59 1.1.418 7.965-.217 8.647l-.316.34-.336-.336a1.84 1.84 0 00-.795-.427c-.805-.161-1.029-1.174-1.029-4.637v-2.945l.922-.408c.507-.224.966-.523 1.02-.665.143-.371.4-.223.751.431m32.807-.481c-1.167.309-1.487.521-2.184 1.448-3.249 4.318 1.833 10.647 5.429 6.761 2.263-2.445 1.512-7.368-1.228-8.051-1.156-.289-1.438-.311-2.017-.158m-26.906.238c-2.403.88-2.72 6.133-.497 8.235l.883.835h1.223c1.776 0 2.722-.725 3.379-2.587 1.494-4.234-1.281-7.841-4.988-6.483m3.189.896c.925.564 1.123 1.164 1.129 3.424.006 2.491-.087 2.845-.819 3.151-.311.131-.65.393-.752.585-.316.59-1.739.495-2.284-.153-.231-.275-.515-.5-.63-.5-.833 0-1.232-4.016-.57-5.74.41-1.066 2.701-1.514 3.926-.767m26.121-.064c.144.144.262.362.262.485s.237.422.527.666c.611.515.87 1.62.703 3.003-.2 1.652-2.363 3.827-3.46 3.481-2.23-.705-3.765-4.59-2.383-6.032.236-.247.544-.723.684-1.058.316-.757.37-.778 2.042-.794 1.031-.01 1.427.051 1.625.249m43.02 42.959c.377 1.5-.331 2.364-1.446 1.767l-.37-.198.427-.224c.248-.13.558-.541.738-.978.348-.845.508-.936.651-.367M2.49 95.982c.093.173.508.455.922.625 1.015.417.865.643-.426.643-.996 0-1.073-.027-1.125-.392-.131-.929.288-1.513.629-.876" fill="#89d2b8"/><path d="M1.902 2.062c-.146.379.002 1.991.189 2.052.095.032.273-.218.395-.555s.416-.793.653-1.013c.358-.332.39-.426.188-.554-.373-.236-1.326-.189-1.425.07m394.14-.122c-.356.15-.233.318.402.547a3.01 3.01 0 011.001.643c.479.516.605.414.624-.504l.014-.709-.916-.033c-.505-.017-1.011.008-1.125.056M240.606 33.6c-.055.174-.219.954-.366 1.733-.157.838-.459 1.757-.739 2.25-.301.53-.563 1.362-.721 2.285-.137.799-.38 1.699-.541 2l-.763 1.5c-.663 1.338-.479 1.299-6.038 1.299-5.797 0-6.799.196-5.019.983.413.183.795.446.848.584s.509.484 1.014.769 1.176.776 1.491 1.091.676.573.802.573.432.24.68.535.723.658 1.056.808c.724.326 1.969 1.634 2.117 2.223.216.859-.43 3.616-.999 4.261-.124.141-.315.706-.424 1.256-.422 2.134-.536 2.52-.923 3.11-.492.751-.731 2.213-.384 2.347.277.106.698-.178.845-.57.058-.154.428-.422.823-.597s1.063-.617 1.485-.982 1-.76 1.286-.879.561-.346.612-.506.433-.466.85-.681.831-.525.92-.691.614-.531 1.168-.811l1.007-.508 1.082.36c.686.228 1.29.567 1.648.926.311.311.667.565.79.565s.623.341 1.11.757 1.118.877 1.401 1.023.655.445.827.664.563.502.868.63.682.426.837.662c1.072 1.636 1.221-1.612.166-3.618-.609-1.158-.715-1.613-.907-3.88-.112-1.326-.197-1.649-.528-2.002-.38-.404-.385-.437-.116-.87l.622-1.071c.189-.341.587-.745.884-.897s.818-.525 1.157-.83.936-.716 1.326-.915.855-.548 1.035-.777.578-.52.883-.648.649-.385.764-.573.564-.536 1-.774c1.637-.897 1.013-1.046-4.406-1.055-6.472-.01-6.501-.02-7.027-2.467-.162-.755-.47-1.63-.684-1.946-.245-.361-.493-1.145-.67-2.118-.154-.85-.379-1.732-.5-1.961-1.334-2.528-1.554-2.871-1.649-2.567m6.755 20.087l.496.353-.47.493c-.729.765-2.06 1.329-2.993 1.268-.804-.052-1.169-.387-.616-.567.928-.3 1.198-.461 1.396-.831.504-.942 1.44-1.249 2.187-.716M397.44 95.755c-.18.437-.49.848-.738.978l-.427.224.37.198c.82.439 1.433.175 1.491-.642.111-1.55-.221-1.912-.696-.758m-395.534.311c-.251.999-.082 1.184 1.08 1.184 1.291 0 1.441-.226.426-.643-.414-.17-.829-.452-.922-.625-.23-.43-.463-.396-.584.084" fill="#0fb881"/></svg>